<svg xmlns="http://www.w3.org/2000/svg" width="436.828" height="360.921" viewBox="0 0 436.828 360.921">
  <g id="Group_282" data-name="Group 282" transform="translate(-821 -306)">
    <path id="Path_3860" data-name="Path 3860" d="M21286.951,390.694V579.826s24.586,5.322,41.924,5.655,7.621,0,7.621,0v37.433h-39.525s-25.033,10.49-14.105,25.62,25.262,6.419,25.7,0a89.91,89.91,0,0,0,0-11.854l81.9,4.3s-.469,14.033,15.824,14.417,14.854-28.875-5.215-28.87-36.6,0-36.6,0V585.48h41.811s11.158-1.126,11.445-9.113-10.955-26.141-42.586-25.354-62.115,4.422-62.115,4.422V455.025s10.479-27.139,4.514-45.385S21286.951,390.694,21286.951,390.694Z" transform="translate(-20427 10)" fill="#5ac0be"/>
    <path id="Path_3861" data-name="Path 3861" d="M21348.92,378.7s-24.2,67.582-22.562,107.772,8.387,50.913,32.523,55.4,76.783,0,76.783,0V654.144h24.254s12.336-98.272,8.535-117.487.021-29.888-25.08-31.086-53.039,0-53.039,0l4.049-68.325,32.922,15.433,52.275-3.175,6.924-20.214-54.527-6.352-37.594-34.649s-10.812-13.931-24.59-13.188S21348.92,378.7,21348.92,378.7Z" transform="translate(-20427 10)" fill="#5ac0be"/>
    <path id="Path_3862" data-name="Path 3862" d="M21391,304.119s30.023,10,21.84,39.788-38.357,21.858-45.547,17.219-18.545-33.812-5.064-46.375S21391,304.119,21391,304.119Z" transform="translate(-20427 10)" fill="#5ac0be"/>
    <path id="Path_3863" data-name="Path 3863" d="M21515.174,430.566l13.848,5.371,28.213-67.706h4.639l10.543,83.776h-40.3V472.29h-98.6v19.048h95.51V653.6h90.453V472.29H21590.1l-22.062-113.581h-10.807l15.182-44.086-10.543-4.613Z" transform="translate(-20427 10)" fill="#5ac0be"/>
    <g id="Group_266" data-name="Group 266" transform="translate(302.465 -841.966)">
      <path id="Path_3812" data-name="Path 3812" d="M695.843,1438.152c0,1.133.014,2.266.025,3.4.01,1.166,0,2.326.084,3.491a78.631,78.631,0,0,0,.939,8.313,36.223,36.223,0,0,0,1.975,7.351c.339.834.673,1.667,1.074,2.474.274.551.587,1.092.9,1.621a35.37,35.37,0,0,0,2.334,3.416,17.407,17.407,0,0,0,2.375,2.438,23.512,23.512,0,0,0,3.427,2.522,37.368,37.368,0,0,0,3.937,1.951,29.856,29.856,0,0,0,3.484,1.313,37.614,37.614,0,0,0,3.684.843c1.492.288,3.008.491,4.51.711,1.333.2,2.671.334,4.005.508,1.276.167,2.553.319,3.832.425,2.643.217,5.288.329,7.934.438,5.531.233,11.063.4,16.594.573,2.647.083,5.295-.032,7.943-.027,2.621.005,5.231-.157,7.853-.135,1.378.011,2.751.026,4.127-.013,1.359-.037,2.717-.059,4.078-.056,2.51.006,5.022.1,7.534.192,4.071.147,8.144.324,12.216.418q2.467.057,4.935.085l.7.007c-.03.606-.112,1.209-.148,1.815s-.048,1.216-.055,1.823a20.5,20.5,0,0,1-.136,2.065,66.311,66.311,0,0,0-.3,6.712q-.081,8.071-.082,16.146,0,.612,0,1.225c0,.921,0,1.84.005,2.759.012,1.262.13,2.523.209,3.784.164,2.664.178,5.335.216,8,.073,5.314.077,10.625.1,15.935q.018,3.948.043,7.894c.018,2.634.1,5.277-.032,7.9-.132,2.532-.112,5.074-.248,7.6-.15,2.771-.182,5.548-.355,8.315q-.1,1.688-.171,3.379c-.021.566-.039,1.135-.053,1.7a12.083,12.083,0,0,0,0,1.833,2.872,2.872,0,0,0,.385,1.436,2.977,2.977,0,0,0,.857.942c.148-1.169.313-2.335.482-3.5a25.712,25.712,0,0,1,.8-3.783l.011-.2c.162-3.09.632-6.159,1.06-9.208a10.824,10.824,0,0,1,2.908-4.893l.3-.225c.063-1.267.159-2.533.235-3.8.121-1.98.121-3.976.12-5.969,0-.647,0-1.3,0-1.941q.045-7.957.077-15.915c.009-2.606.026-5.211.018-7.817-.011-2.689-.025-5.383-.182-8.074-.075-1.276-.15-2.547-.148-3.824q.005-2,.005-4,0-4.028-.015-8.054c-.016-2.714-.052-5.428-.044-8.14a52.954,52.954,0,0,1,.333-6.7c.1-.8.114-1.6.175-2.4.066-.86.166-1.716.255-2.575a12.015,12.015,0,0,0-.2-2.868,6.986,6.986,0,0,0-.687-1.987l.037.087a2.986,2.986,0,0,0-.726-1.035,4.571,4.571,0,0,0-1.78-1.074,6.962,6.962,0,0,0-1.631-.219c-.662-.047-1.324-.093-1.985-.131q-2.958-.164-5.913-.283c-4.879-.2-9.763-.323-14.64-.392-2.64-.037-5.277-.027-7.909.083-2.674.112-5.354.048-8.03.115-1.345.032-2.688.115-4.036.116s-2.686,0-4.032.018c-1.315.016-2.63.051-3.946.019-1.333-.031-2.667-.086-4-.131-5-.171-10.011-.316-15.015-.517-2.291-.093-4.581-.216-6.869-.441-1.224-.121-2.446-.3-3.665-.477-1.017-.149-2.036-.279-3.05-.437q-.938-.162-1.876-.323l.118.019c-1.309-.23-2.6-.531-3.895-.866a22.777,22.777,0,0,1-3.4-1.227c-.965-.454-1.934-.92-2.858-1.457a23.865,23.865,0,0,1-2.492-1.664,18.752,18.752,0,0,1-2.166-2.169,28.962,28.962,0,0,1-2.922-4.927,39.747,39.747,0,0,1-2.018-8.1c-.125-1.021-.234-2.047-.3-3.071-.075-1.183-.18-2.372-.18-3.554,0-1.139.009-2.278.02-3.416.011-1.184.02-2.369.018-3.555-.009-4.887-.077-9.776-.073-14.662,0-2.437.025-4.877.146-7.309.066-1.3.173-2.6.223-3.905s.043-2.6.089-3.9c.046-1.341.112-2.68.227-4.016.109-1.3.18-2.593.276-3.889.1-1.368.18-2.738.273-4.107.087-1.281.276-2.548.407-3.823.042-.413.091-.823.143-1.233.077-.57.15-1.139.223-1.706.439-2.958.951-5.9,1.354-8.865.394-2.7.853-5.388,1.346-8.068.205-1.112.337-2.238.533-3.351.232-1.316.527-2.619.826-3.919q.466-2.019.926-4.043c.3-1.323.692-2.623,1.028-3.936.584-2.288,1.1-4.594,1.72-6.872.687-2.534,1.44-5.053,2.068-7.605.621-2.531,1.368-5.02,2.136-7.5,1.543-4.993,3.231-9.937,4.7-14.954.328-1.122.6-2.269.874-3.409.3-1.282.584-2.566.833-3.862a2.594,2.594,0,0,0-.244-1.881,2.563,2.563,0,0,0-1.454-1.165,2.425,2.425,0,0,0-1.874.183,2.262,2.262,0,0,0-1.117,1.417c-.421,2.191-.958,4.345-1.543,6.494-.659,2.414-1.524,4.762-2.3,7.136-.828,2.543-1.686,5.072-2.478,7.63-.769,2.489-1.63,4.942-2.346,7.448-.359,1.251-.7,2.507-1.062,3.757s-.758,2.512-1.118,3.776c-.669,2.339-1.233,4.7-1.834,7.06-.326,1.28-.689,2.549-1.017,3.829-.348,1.355-.648,2.723-.969,4.086-.562,2.382-1.079,4.766-1.507,7.18-.228,1.286-.527,2.557-.753,3.843-.242,1.367-.474,2.737-.733,4.1-.248,1.313-.428,2.641-.676,3.954-.259,1.378-.553,2.749-.8,4.131-.424,2.382-.89,4.754-1.261,7.149q-.364,2.346-.584,4.711c-.121,1.287-.294,2.566-.412,3.854-.12,1.311-.3,2.613-.423,3.924-.122,1.33-.185,2.664-.237,4s-.088,2.695-.19,4.04c-.091,1.213-.182,2.427-.233,3.646-.205,4.864-.164,9.747-.2,14.619-.016,2.212-.036,4.421-.036,6.634v.733Z" transform="translate(-96.327 -87.326)" fill="#236092"/>
      <path id="Path_3813" data-name="Path 3813" d="M748.185,1309.7a1.967,1.967,0,0,0,.858,1.145,2.023,2.023,0,0,0,1.441.236c.556-.078,1.112-.158,1.671-.225a24.1,24.1,0,0,1,2.556-.063c1.1.029,2.193.111,3.29.09,1.047-.019,2.085-.094,3.125-.186a28.748,28.748,0,0,1,3.283-.075c2.178.053,4.359.182,6.537.277a56.312,56.312,0,0,1,6.2.566c.588.11,1.174.237,1.758.371.854.2,1.684.468,2.522.722a35.023,35.023,0,0,1,3.686,1.317,14.484,14.484,0,0,1,2.343,1.341c.563.409,1.113.84,1.663,1.268a53.752,53.752,0,0,1,4.331,4.181c1.5,1.575,2.963,3.191,4.456,4.776,1.517,1.611,3.01,3.244,4.567,4.817.853.861,1.645,1.777,2.469,2.666.783.846,1.556,1.7,2.33,2.558,1.435,1.588,2.878,3.159,4.25,4.8.68.812,1.343,1.635,2.032,2.436.721.839,1.49,1.638,2.241,2.452.8.863,1.581,1.743,2.389,2.6.824.869,1.645,1.74,2.471,2.607s1.634,1.713,2.469,2.552c.664.667,1.361,1.3,2.031,1.958a33.782,33.782,0,0,0,3.127,2.643,14.03,14.03,0,0,0,3.25,1.737,15.433,15.433,0,0,0,2.78.88,33.724,33.724,0,0,0,4.357.507c2.1.137,4.207.186,6.311.257q3.455.114,6.91.211,3.251.1,6.5.188l3.547.095c1.2.032,2.381.116,3.577.217,1.136.1,2.273.171,3.411.237,1.033.059,2.061.2,3.09.3,1.2.127,2.407.2,3.613.274,1.012.06,2.02.257,3.026.377.592.069,1.188.11,1.783.142.641.034,1.284.031,1.923.112q.693.123,1.387.242l-.129-.021.025,0c.277.047.553.093.829.138a3.033,3.033,0,0,0,1.574-.373,3,3,0,0,0,1.432-1.818,3.172,3.172,0,0,0-.314-2.413,3.27,3.27,0,0,0-1.119-1.156,3.192,3.192,0,0,0-1.574-.478c-.2-.022-.4-.048-.6-.077-.57-.1-1.139-.213-1.713-.285-.544-.069-1.1-.08-1.641-.121q-1.386-.1-2.762-.31c-.5-.074-.993-.156-1.493-.224-.612-.085-1.229-.113-1.843-.162-1.12-.088-2.239-.234-3.354-.394-2.232-.323-4.48-.5-6.719-.734-1.2-.126-2.4-.152-3.6-.2l-3.311-.126q-5.478-.21-10.96-.4c-1.722-.06-3.445-.118-5.168-.191-1.749-.072-3.5-.157-5.246-.385a17.271,17.271,0,0,1-2.674-.84,15.336,15.336,0,0,1-2.187-1.39c-1.412-1.193-2.718-2.5-4.046-3.786-.86-.835-1.68-1.713-2.517-2.57s-1.711-1.706-2.533-2.589c-1.54-1.657-3.176-3.22-4.675-4.914-1.409-1.593-2.813-3.189-4.3-4.712-1.586-1.622-3.161-3.263-4.71-4.92s-3.219-3.192-4.828-4.786c-1.541-1.53-3.115-3.026-4.638-4.573s-3.12-3.072-4.792-4.474a35.455,35.455,0,0,0-2.8-2.2,23.521,23.521,0,0,0-2.453-1.583,37.346,37.346,0,0,0-6.383-2.479,36.531,36.531,0,0,0-7.187-1.363c-2.128-.192-4.249-.224-6.378-.234-1.572-.007-3.149,0-4.715.07-1.7.081-3.364.315-5.044.512-.705.057-1.409.11-2.116.138-.82.032-1.646,0-2.467.028a48.043,48.043,0,0,0-5.131.524,1.715,1.715,0,0,0-1.117.821,1.833,1.833,0,0,0-.256.939,1.869,1.869,0,0,0,.067.5Zm37.182,4.286.129.058-.129-.058Zm98.256,49.3-.164-.027.164.027Z" transform="translate(-124.726 -85.95)" fill="#236092"/>
      <path id="Path_3814" data-name="Path 3814" d="M792.283,1409.315a9.929,9.929,0,0,0,1.759,1.289c.546.316,1.056.68,1.579,1.035q1.343.914,2.732,1.761c1.807,1.1,3.615,2.189,5.373,3.376.894.6,1.743,1.276,2.65,1.86.955.615,1.905,1.238,2.864,1.846,1.646,1.045,3.282,2.1,4.926,3.152.849.542,1.693,1.09,2.565,1.6.949.554,1.909,1.074,2.881,1.588s1.9,1.083,2.837,1.641q1.434.855,2.886,1.682c.987.562,1.966,1.14,2.969,1.667.886.468,1.779.925,2.669,1.384,1.02.528,2.044,1.04,3.081,1.534,1.211.579,2.412,1.18,3.659,1.679,1,.4,2,.777,3,1.187.962.4,1.9.859,2.867,1.239,1.023.4,2.072.724,3.106,1.087a19.925,19.925,0,0,0,2.919.842c.408.076.812.173,1.219.254a13.742,13.742,0,0,0,2.084.213c.953.045,1.906.107,2.86.145,1.866.077,3.734.146,5.6.134.933-.007,1.863-.053,2.79-.125.473-.036.946-.085,1.418-.119s.944-.008,1.415,0c.908.014,1.815.008,2.721-.038,1.126-.055,2.242-.206,3.358-.343,1.242-.112,2.492-.19,3.739-.24,1.531-.062,3.045-.243,4.563-.412.752-.072,1.5-.152,2.253-.237,1.172-.114,2.342-.224,3.507-.4.98-.148,1.969-.249,2.955-.36,2.194-.223,4.379-.468,6.552-.84,2.275-.389,4.546-.8,6.821-1.191.475-.083.935-.221,1.408-.312.295-.056.6-.068.89-.149a3.182,3.182,0,0,0,2.216-2.168,5.991,5.991,0,0,1,.269-.781,11.618,11.618,0,0,0,.359-1.2c.148-.519.28-1.033.384-1.564.2-.989.362-1.983.546-2.974.2-1.114.4-2.24.562-3.363.152-1.071.365-2.121.571-3.182.449-2.322,1.145-4.572,1.805-6.836a2.471,2.471,0,0,0-1.652-2.964,2.314,2.314,0,0,0-2.912,1.557c-.253.871-.5,1.742-.765,2.61-.236.769-.489,1.545-.664,2.333-.339,1.515-.707,3.026-.956,4.559-.264,1.608-.59,3.2-.872,4.806-.131.743-.3,1.474-.455,2.212-.082.379-.184.745-.3,1.114-.09.28-.169.569-.263.848a10.921,10.921,0,0,0-1.294.268c-.872.21-1.784.32-2.667.48-2.12.385-4.249.734-6.4.974-2.552.229-5.121.269-7.67.527l.045,0h.007l.413-.042-.129.013.1-.01c-1.029.105-2.064.131-3.1.218-1.144.095-2.288.187-3.431.3l.479-.049c-.814.082-1.631.155-2.45.2-1.227.063-2.435.133-3.657.259l.794-.081c-.923.093-1.848.15-2.771.245-.475.048-.948.111-1.422.168-1.516.112-3.033.074-4.556.049-.834-.013-1.672.095-2.505.128-.788.03-1.579.032-2.371.024-1.579-.013-3.16-.07-4.739-.107q-1.258-.033-2.516-.043c-.634-.005-1.289.024-1.926-.034a28.643,28.643,0,0,1-3.478-.917c-1.472-.5-2.942-1-4.364-1.636l.71.323c-1.128-.511-2.253-1.023-3.4-1.5-.9-.375-1.817-.724-2.716-1.111-3.85-1.83-7.622-3.837-11.284-6.035-.937-.563-1.868-1.13-2.8-1.691s-1.9-1.117-2.877-1.648c-1.82-.992-3.565-2.116-5.306-3.244-.728-.474-1.45-.952-2.184-1.417q-1.231-.781-2.443-1.6c-.883-.594-1.8-1.14-2.667-1.753s-1.709-1.23-2.591-1.8c-1.659-1.077-3.365-2.066-5.051-3.1-1.829-1.118-3.52-2.438-5.3-3.621a3.139,3.139,0,0,0-3.823.369,3.055,3.055,0,0,0-.924,2.2,3.184,3.184,0,0,0,.924,2.262ZM889.4,1439.3l.448-.045-.448.045Zm-3.04-5.387-.3.031.3-.031Z" transform="translate(-148.218 -139.096)" fill="#236092"/>
      <path id="Path_3815" data-name="Path 3815" d="M836.409,1509.766a2.776,2.776,0,0,0,2.871-2.776c-.15-4.419-.216-8.851-.091-13.261.03-1.105.087-2.206.162-3.306.079-1.139.107-2.277.132-3.417s.077-2.251.151-3.373c.068-1.014.07-2.026.07-3.044,0-1.709,0-3.419.042-5.126.037-1.685.17-3.354.318-5.028.077-.886.114-1.775.164-2.664.045-.809.128-1.612.18-2.421.048-.769.057-1.542.113-2.31s.13-1.552.225-2.323q.149-1.117.287-2.235c.174-1.226.352-2.449.512-3.677.364-2.6.7-5.207.883-7.831.08-1.137.112-2.273.152-3.413.045-1.358.182-2.708.309-4.056a2.072,2.072,0,0,0-.608-1.49,2.163,2.163,0,0,0-1.47-.657,2.025,2.025,0,0,0-1.47.561,2.137,2.137,0,0,0-.608,1.45c-.18,1.908-.3,3.81-.359,5.729-.05,1.714-.3,3.414-.515,5.107-.325,2.222-.694,4.439-1.082,6.65-.174.991-.312,1.99-.474,2.983-.191,1.171-.328,2.353-.424,3.539-.084,1.028-.137,2.054-.246,3.08-.121,1.145-.177,2.3-.3,3.444s-.259,2.268-.344,3.408c-.088,1.164-.134,2.333-.17,3.5-.034,1.121-.05,2.243-.066,3.366-.012.99-.01,1.978-.1,2.962-.1,1.135-.2,2.27-.257,3.41-.064,1.183-.114,2.362-.232,3.539-.212,2.1-.359,4.206-.414,6.325-.061,2.278-.072,4.559-.106,6.841-.016,1.184-.064,2.365-.1,3.549,0,.028,0,.056,0,.084a3.016,3.016,0,0,0,2.874,2.881Z" transform="translate(-171.131 -157.219)" fill="#236092"/>
      <path id="Path_3816" data-name="Path 3816" d="M834.929,1590.169a2.518,2.518,0,0,0,1.481,1.188c1.222.272,2.44.544,3.672.754a37.405,37.405,0,0,0,4.041.436c2.262.133,4.524.209,6.787.281,4.662.147,9.322.275,13.984.449q6.91.258,13.818.6,3.353.164,6.7.341c1.217.063,2.428.117,3.64.278,1.083.142,2.166.276,3.252.36,1.236.1,2.462.275,3.691.446.974.174,1.947.372,2.91.614a26.024,26.024,0,0,1,3.576,1.23,8.212,8.212,0,0,1,.933.5q.139.138.267.287c.48.7.969,1.389,1.506,2.047.423.522.914.983,1.344,1.5a14.972,14.972,0,0,1,1.37,2.279c.681,1.818,1.213,3.68,1.859,5.511.163.464.332.922.464,1.4.121.436.207.883.31,1.323.221.935.389,1.886.53,2.836.114,1.026.169,2.054.273,3.081.11,1.126.214,2.25.287,3.378.07,1.078.109,2.157.136,3.235.025,1.107.014,2.216.091,3.323.161,2.333.3,4.657.35,6.992.046,2.175.048,4.35.053,6.525.007,2.309.02,4.62.007,6.93-.005,1.143-.121,2.285-.182,3.423-.055,1.044-.089,2.086-.169,3.128s-.157,2.094-.221,3.145c-.07,1.109-.22,2.211-.318,3.315-.192,2.194-.39,4.387-.611,6.576-.15,1.485-.218,2.977-.378,4.46-.15,1.381-.314,2.76-.47,4.142-.126.9-.257,1.8-.369,2.707-.113.8-.227,1.6-.334,2.4-.175,1.114-.359,2.226-.5,3.346-.107.755-.221,1.508-.323,2.263-.13.859-.26,1.718-.38,2.583.025-.181.05-.364.075-.545-.337,2.214-.587,4.44-.851,6.665-.112.785-.23,1.569-.337,2.358-.125.839-.261,1.678-.378,2.519.009-.075.019-.147.03-.22-.214,1.412-.385,2.826-.567,4.242.032-.231.062-.46.095-.691-.1.741-.2,1.483-.295,2.224-.136.925-.282,1.846-.41,2.773-.2,1.249-.437,2.49-.655,3.736l-.085.493q.183.28.349.57a11.512,11.512,0,0,1,1.543,5.756c-.055.414-.112.829-.168,1.243-.278,2.205-.48,4.407-.56,6.635.007.166.012.332.012.5-.012.087-.023.174-.036.261-.043,1.629-.058,3.261-.069,4.894a2.8,2.8,0,0,0,.44-.348l.466-.586a2.9,2.9,0,0,0,.405-1.485c0-.039.007-.077.01-.115.032-.188.069-.375.109-.56.123-.583.234-1.15.319-1.74-.02.153-.041.3-.06.457.041-.306.1-.607.155-.908.08-.431.125-.868.171-1.306.093-.584.2-1.164.268-1.752.066-.544.091-1.094.15-1.64.3-2.065.685-4.12,1.079-6.166.216-1.12.374-2.255.6-3.376.238-1.2.437-2.413.607-3.625,0,.039-.01.078-.015.118.261-1.856.6-3.694.856-5.552l-.021.17c.284-2.108.706-4.2,1.079-6.287.351-1.979.612-3.971.865-5.966.232-1.634.51-3.257.722-4.893-.027.2-.055.4-.081.6q.04-.3.082-.6l.011-.083,0-.017v-.014c0-.01,0-.021,0-.031l.016-.113c.008-.067.017-.132.026-.2-.007.051-.014.1-.021.153.107-.754.219-1.508.322-2.261.168-1.12.357-2.235.512-3.357-.021.158-.042.318-.064.476.171-1.182.348-2.361.508-3.546-.034.247-.068.494-.1.739.184-1.245.355-2.491.523-3.74.144-1.059.275-2.12.408-3.178.129-1.031.207-2.063.309-3.1.221-2.257.505-4.506.753-6.76.232-2.123.412-4.249.587-6.379.178-2.158.3-4.32.435-6.483.144-2.289.063-4.61.063-6.91,0-2.191,0-4.382-.016-6.573-.014-2.328-.062-4.662-.232-6.99-.079-1.094-.129-2.179-.138-3.275-.007-1.126-.021-2.252-.061-3.38-.057-1.682-.23-3.358-.362-5.038-.068-.833-.1-1.67-.207-2.5-.141-1.1-.3-2.192-.541-3.279-.158-.721-.343-1.433-.517-2.151a17.867,17.867,0,0,0-.71-2.037c-.608-1.606-1.142-3.236-1.8-4.824l.294.705c-.254-.617-.5-1.235-.765-1.847a15.4,15.4,0,0,0-.723-1.419,20.877,20.877,0,0,0-1.481-2.25c.041.051.08.1.121.158l-.218-.289.1.131c-.48-.626-.994-1.215-1.5-1.824-.51-.748-1-1.506-1.575-2.207a7.534,7.534,0,0,0-1.29-1.143,6.757,6.757,0,0,0-1.529-.762,24.031,24.031,0,0,0-5.979-1.973c-1.265-.214-2.523-.447-3.795-.615-1.042-.138-2.075-.245-3.12-.313-1.145-.074-2.284-.185-3.425-.3-1.215-.122-2.437-.1-3.654-.116q-3.294-.047-6.587-.1c-9.229-.154-18.456-.441-27.685-.776-1.758-.065-3.516-.126-5.274-.2a47.615,47.615,0,0,1-4.924-.406c-.963-.187-1.92-.4-2.878-.612a2.592,2.592,0,0,0-1.909.187,2.392,2.392,0,0,0-1.14,1.445,2.451,2.451,0,0,0-.089.652,2.555,2.555,0,0,0,.339,1.265Zm74.1,5.435c.122.161.243.32.362.481-.119-.161-.241-.32-.362-.481Z" transform="translate(-171.704 -238.257)" fill="#236092"/>
      <path id="Path_3817" data-name="Path 3817" d="M1001.269,1610.923c-.077-.1-.155-.207-.233-.311.078.1.155.208.233.311Z" transform="translate(-262.13 -251.343)" fill="#236092"/>
      <path id="Path_3818" data-name="Path 3818" d="M1008.25,1807.88h0v0Z" transform="translate(-266.049 -358.513)" fill="#236092"/>
      <path id="Path_3819" data-name="Path 3819" d="M1008.278,1807.662v0Z" transform="translate(-266.064 -358.394)" fill="#236092"/>
      <path id="Path_3820" data-name="Path 3820" d="M1008.327,1807.22l-.006.044,0,.03.01-.074Z" transform="translate(-266.085 -358.155)" fill="#236092"/>
      <path id="Path_3821" data-name="Path 3821" d="M937.358,1900.5c.114.448.228.9.367,1.34.154-1.24.329-2.477.509-3.711.025-.167.05-.334.076-.5a2.732,2.732,0,0,0-1.042,2.163,2.861,2.861,0,0,0,.089.709Z" transform="translate(-227.487 -407.271)" fill="#236092"/>
      <path id="Path_3822" data-name="Path 3822" d="M992.257,1905.841a3.191,3.191,0,0,0,.961-2.293,3.407,3.407,0,0,0-.961-2.354,3.581,3.581,0,0,0-1.958-1.018c-.031,1.783-.037,3.568-.051,5.351q0,.591-.011,1.181a3.185,3.185,0,0,0,2.02-.866Z" transform="translate(-256.263 -408.655)" fill="#236092"/>
      <path id="Path_3823" data-name="Path 3823" d="M603.762,1390.83q.005,1.5,0,3.01c0,2.344.089,4.7.252,7.04.148,2.13.391,4.254.56,6.382.368,4.654.837,9.308.972,13.969.032,1.145.127,2.29.182,3.433.057,1.174.08,2.349.1,3.521.034,2.461-.028,4.92-.05,7.379-.01,1.183.069,2.373.12,3.556q.069,1.726.1,3.452c.047,2.394.061,4.789.064,7.181,0,1.129,0,2.259,0,3.386,0,1.24-.027,2.483.03,3.725.107,2.264.268,4.526.325,6.792.1,3.911.1,7.821.1,11.73v1.766q0,2.347,0,4.694c-.005,2.935-.011,5.868.005,8.8q.038,6.349.052,12.7c0,1.981.02,3.962.02,5.942,0,1.045,0,2.089-.014,3.132q-.014.961-.032,1.922a11.522,11.522,0,0,0,.167,1.876c.084.759.117,1.521.131,2.282a8.9,8.9,0,0,0,.221,1.866q.061.257.11.515c.02.266.029.533.031.8a7.023,7.023,0,0,0,.153,1.528c.021.094.048.185.071.277a4.034,4.034,0,0,0,.933,1.665,2.852,2.852,0,0,0,3.419.553,2.709,2.709,0,0,0,1.295-1.641,2.87,2.87,0,0,0-.171-1.938c-.022-.072-.043-.144-.062-.217-.043-.574-.095-1.143-.177-1.722-.06-.43-.179-.851-.27-1.275-.032-.6-.061-1.194-.119-1.79-.068-.721-.193-1.432-.31-2.145-.035-.5-.03-.994-.038-1.49q-.016-.972-.025-1.943c-.005-.918,0-1.834,0-2.751,0-1.877.018-3.752.021-5.628q.011-6.39.053-12.781c.027-4.485,0-8.971,0-13.458q0-1.352,0-2.707c0-3.561.007-7.124-.07-10.687-.05-2.273-.211-4.542-.271-6.813-.039-1.543-.037-3.086-.034-4.631,0-.877,0-1.757-.005-2.635-.016-2.32-.041-4.642-.128-6.964-.046-1.215-.1-2.43-.18-3.644-.08-1.194-.175-2.389-.209-3.586-.07-2.455-.136-4.911-.261-7.366-.119-2.323-.385-4.638-.5-6.96-.221-4.6-.719-9.19-1.149-13.78-.421-4.478-.862-8.952-.853-13.441.01-4.8.02-9.609.325-14.392.077-1.213.173-2.424.192-3.641.02-1.1.029-2.208.039-3.313.02-2.269,0-4.539-.009-6.809-.009-2.337-.007-4.674.037-7.01.023-1.175.073-2.347.136-3.52.059-1.133.071-2.263.069-3.4,0-1.984.027-3.967.064-5.949.018-.977.044-1.954.1-2.93.05-.914.166-1.82.286-2.725q.067-.482.133-.963c.027-.2.056-.409.082-.613a2.379,2.379,0,0,0-.316-1.181,2.459,2.459,0,0,0-1.386-1.113,2.319,2.319,0,0,0-1.788.176,2.112,2.112,0,0,0-1.065,1.351c-.191,1.38-.4,2.76-.524,4.151-.095,1.1-.116,2.21-.128,3.319-.014,1.243-.007,2.487,0,3.729,0,.97.012,1.941.007,2.91-.01,2.346-.237,4.672-.346,7.009s-.15,4.673-.185,7.013q-.053,3.458-.03,6.921c.007,1.092.023,2.185.03,3.275.007,1.162-.1,2.327-.142,3.485-.119,2.921-.142,5.849-.142,8.777q0,1.284,0,2.565Z" transform="translate(-46.299 -102.179)" fill="#236092"/>
      <path id="Path_3824" data-name="Path 3824" d="M609.7,1338.912c1,.046,2.011.082,3.014.135.95.05,1.893.188,2.836.322,1.46.273,2.9.631,4.338,1.026a34.132,34.132,0,0,1,4.171,1.426,17.055,17.055,0,0,1,2.648,1.758c.423.359.833.732,1.243,1.105.484.441.974.869,1.422,1.345.793.842,1.523,1.729,2.229,2.641.658.911,1.291,1.835,1.857,2.806a29.8,29.8,0,0,1,1.55,3.154,54.459,54.459,0,0,1,2.955,12.4c.308,2.573.4,5.157.463,7.738a53.987,53.987,0,0,1-.4,7.742q-.13.924-.255,1.849l.063-.47c-.317,2.005-.642,4.015-1.106,5.989a28.476,28.476,0,0,1-.8,2.818c-.319.93-.7,1.831-1.072,2.742-.294.662-.6,1.319-.91,1.973-.387.813-.887,1.553-1.313,2.342a8.048,8.048,0,0,0-.828,3.425c-.068,1.029-.064,2.068-.059,3.1.023,4.084.161,8.171.212,12.255q.179,14.074.317,28.149c.043,5.17.034,10.336.025,15.5-.005,4.019-.012,8.038,0,12.057.01,2.317.034,4.631.055,6.947.02,2.111.3,4.217.373,6.328.152,4.1.218,8.226.159,12.328a6.584,6.584,0,0,0,.144,2.017,2.639,2.639,0,0,0,2.411,1.915,2.417,2.417,0,0,0,2.41-1.756,7.551,7.551,0,0,0,.136-2.094q-.011-.758-.009-1.515,0-1.517.012-3.035c.012-2.149.053-4.3.03-6.448-.023-2.033-.18-4.054-.292-6.083-.063-1.1,0-2.214.007-3.314q.016-1.8.029-3.6c.03-4.552.021-9.107.012-13.662-.009-4.607-.018-9.215.012-13.823.064-9.409.2-18.816.311-28.223.037-3.026.107-6.05.163-9.076.028-1.553.062-3.106.077-4.66q.013-1.169.005-2.34c0-.489-.034-.983-.03-1.474.093-.154.191-.3.289-.453a16.853,16.853,0,0,0,.879-1.573c.516-1.014.989-2.047,1.442-3.091l-.154.361c.546-1.247,1.113-2.484,1.559-3.776a29.04,29.04,0,0,0,.883-3.138c.471-2.107.837-4.231,1.188-6.364a56.213,56.213,0,0,0,.8-7.3c.073-2.227.05-4.48-.032-6.714-.037-.988-.089-1.974-.179-2.962-.1-1.082-.259-2.162-.411-3.241-.151-1.172-.326-2.328-.559-3.49-.191-.947-.4-1.885-.624-2.825a36.321,36.321,0,0,0-2.185-6.564,32.648,32.648,0,0,0-1.551-3.109,34.019,34.019,0,0,0-2.5-3.557,30.467,30.467,0,0,0-2.02-2.384,26.267,26.267,0,0,0-2.513-2.286l.06.048c-.926-.755-1.843-1.525-2.83-2.2-.433-.295-.87-.58-1.318-.853a16.7,16.7,0,0,0-1.9-.94,24.815,24.815,0,0,0-5.176-1.551,55.263,55.263,0,0,0-6.086-.99c-.915-.087-1.829-.2-2.745-.237-.98-.043-1.958-.082-2.937-.126a2.691,2.691,0,0,0-2.774,2.685,2.918,2.918,0,0,0,2.774,2.865Z" transform="translate(-48.021 -100.719)" fill="#236092"/>
      <path id="Path_3825" data-name="Path 3825" d="M667.868,1698.54a2.573,2.573,0,0,0,1.841.824c2.216-.2,4.428-.442,6.624-.782q2.875-.444,5.764-.765c2.3-.189,4.614-.273,6.922-.383,2.437-.115,4.885-.023,7.325-.052,2.33-.029,4.664,0,6.994-.047,2.446-.048,4.887-.184,7.335-.225,2.287-.039,4.565-.161,6.856-.131,2.482.035,4.963.138,7.445.243,2.317.1,4.642.156,6.96.312,2.368.158,4.749.375,7.108.674,1.347.17,2.692.339,4.037.543a79.565,79.565,0,0,1,8.134,1.84,58.1,58.1,0,0,1,7.523,2.849c1.368.63,2.732,1.281,4.047,2.019a29.652,29.652,0,0,1,3.4,2.219,14.959,14.959,0,0,1,1.695,1.689,23.265,23.265,0,0,1,1.921,3.532,19.855,19.855,0,0,1,.968,3.7,11.015,11.015,0,0,1,.041,1.771c-.051.8-.047,1.6-.1,2.4a7.95,7.95,0,0,1-.277,1.141,8.628,8.628,0,0,1-.6.991c-.111.122-.226.241-.343.36-.195.2-.421.357-.624.55a3.079,3.079,0,0,0-.8,3.021,3.267,3.267,0,0,0,3.02,2.4,3.484,3.484,0,0,0,1.961-.539,11.73,11.73,0,0,0,.98-.753,7.964,7.964,0,0,0,.976-.965,12.554,12.554,0,0,0,1.225-1.7,14.316,14.316,0,0,0,.83-1.82,14.129,14.129,0,0,0,.646-3.6,16.168,16.168,0,0,0,.168-3.038,20.43,20.43,0,0,0-.624-3.832q-.2-.748-.416-1.494a21.853,21.853,0,0,0-.926-2.362,20.087,20.087,0,0,0-1.486-2.844,14.692,14.692,0,0,0-2.465-3.032c-3.784-3.469-8.53-5.468-13.186-7.393a59.109,59.109,0,0,0-12.918-3.4c-2.523-.422-5.049-.726-7.59-.964-1.2-.112-2.4-.18-3.6-.266-1.153-.084-2.3-.158-3.458-.183-4.792-.1-9.6-.213-14.38-.056-2.384.079-4.758.276-7.14.389s-4.78.329-7.172.461c-2.369.133-4.751.176-7.125.246-2.436.074-4.871.035-7.3.16-1.375.071-2.756.131-4.132.218-1.6.1-3.181.272-4.769.452-1.415.162-2.815.379-4.219.6-1.309.205-2.628.367-3.947.528l-1.293.117c-.232.023-.462.046-.692.07a2.493,2.493,0,0,0-1.149.631,2.528,2.528,0,0,0-.762,1.816,2.7,2.7,0,0,0,.762,1.864Z" transform="translate(-80.715 -294.967)" fill="#236092"/>
      <path id="Path_3826" data-name="Path 3826" d="M612.273,1743.04a15.351,15.351,0,0,0,.373,3.129,9.769,9.769,0,0,0,4.844,6.03,21.921,21.921,0,0,0,3.529,1.586c1,.372,2.029.689,3.056.958a29.924,29.924,0,0,0,4.009.707c1.172.142,2.344.238,3.52.321,1.1.077,2.209.151,3.313.2,1.226.06,2.444.048,3.668.031,1.147-.018,2.289-.105,3.433-.156,1.085-.048,2.169-.055,3.251-.116,2.348-.133,4.694-.171,7.051-.169,1.054,0,2.107-.072,3.16-.115.337-.015.675-.025,1.012-.033a14.92,14.92,0,0,1,1.817-.672,20.029,20.029,0,0,1,4.346-.575,6.926,6.926,0,0,1,1.5.078c.646.094,1.811.2,2.842.431a3.266,3.266,0,0,0,.966-.461,2.939,2.939,0,0,0,1.1-1.066,2.973,2.973,0,0,0,.419-1.539,3.138,3.138,0,0,0-.419-1.566,3.229,3.229,0,0,0-1.1-1.139,8.289,8.289,0,0,0-.967-.435,6.427,6.427,0,0,0-1.131-.2,5.116,5.116,0,0,0-1.577.164q-.709.127-1.427.223c-2.152.159-4.312.1-6.473.137-1.113.019-2.225.073-3.336.114-1.147.041-2.3.015-3.448.035-2.25.039-4.5.211-6.74.323-2.341.118-4.667.317-7.017.314-1.714,0-3.434-.094-5.147-.165-1.648-.07-3.3-.17-4.938-.4a30.923,30.923,0,0,1-5.843-1.676,13.343,13.343,0,0,1-1.859-1.1,8.272,8.272,0,0,1-.614-.607,7.181,7.181,0,0,1-.4-.738,10.022,10.022,0,0,1-.46-1.661,9.664,9.664,0,0,1-.059-1.4c.026-.668.1-1.333.152-2a2.188,2.188,0,0,0-2.1-2.167,2.045,2.045,0,0,0-1.484.565,2.142,2.142,0,0,0-.614,1.464c-.087,1.029-.205,2.054-.205,3.091,0,.082,0,.164,0,.248Z" transform="translate(-50.924 -320.371)" fill="#236092"/>
      <path id="Path_3827" data-name="Path 3827" d="M733.743,1767.636a1.29,1.29,0,0,0,1.329-1.286,1.4,1.4,0,0,0-1.329-1.372,1.289,1.289,0,0,0-1.329,1.285,1.4,1.4,0,0,0,1.329,1.373Z" transform="translate(-116.195 -335.206)" fill="#236092"/>
      <path id="Path_3828" data-name="Path 3828" d="M717.289,1764.619a2.552,2.552,0,0,0,1.51,1.211c1.449.294,2.9.577,4.357.78,1.129.156,2.268.252,3.4.342,2.335.18,4.672.324,7.01.5l.28.02c.418,0,.836.006,1.254.022q1.078.041,2.157.092a31.793,31.793,0,0,1,3.467.355q3.688.236,7.378.451c2.351.139,4.713.188,7.06.431,2.378.247,4.753.473,7.136.628,2.308.151,4.619.282,6.928.25,2.406-.031,4.812-.03,7.222.026,1.9.043,3.805.146,5.705.154,1.847.007,3.688-.092,5.535-.1.872,0,1.747.015,2.621.024a28.206,28.206,0,0,0,3.44-.248,10.573,10.573,0,0,0,5.894-2.593,3.6,3.6,0,0,0,.566-4.372,3.816,3.816,0,0,0-2.164-1.735,3.448,3.448,0,0,0-2.792.274,10.7,10.7,0,0,1-1.575.953,12.188,12.188,0,0,1-1.65.347c-2.082.131-4.171.058-6.26.1-1.124.026-2.248.073-3.374.095-1.176.024-2.36-.038-3.538-.064-2.393-.055-4.783-.078-7.174-.042-1.188.018-2.376.054-3.567.081-1.222.026-2.449-.041-3.674-.081-2.317-.078-4.635-.179-6.952-.329-1.131-.074-2.261-.163-3.394-.222-1.247-.064-2.5-.03-3.75-.044-4.719-.049-9.441-.1-14.157-.059-2.494.02-4.99.042-7.486.008a48.014,48.014,0,0,1-6.5-.459c-.691-.133-1.378-.272-2.066-.412a2.677,2.677,0,0,0-1.947.191,2.442,2.442,0,0,0-1.251,2.136,2.6,2.6,0,0,0,.344,1.288Z" transform="translate(-107.791 -332.875)" fill="#236092"/>
      <path id="Path_3829" data-name="Path 3829" d="M720.938,1770.685l0,.036.742-.049a6.91,6.91,0,0,1,1.5.078,26.186,26.186,0,0,1,3.26.535q-.024-.21-.049-.421l-.1-.728a2.845,2.845,0,0,0-2.632-2.089,2.651,2.651,0,0,0-2.739,2.467,1.346,1.346,0,0,0,.011.171Z" transform="translate(-109.954 -336.873)" fill="#236092"/>
      <path id="Path_3830" data-name="Path 3830" d="M780.846,1773.259c1.114-.065,2.245-.16,3.379-.217.033-.672.075-1.343.109-2.009a2.869,2.869,0,0,0-2.742-2.832,2.667,2.667,0,0,0-1.939.739,2.749,2.749,0,0,0-.8,1.913c-.042.838-.084,1.675-.118,2.513q1.058-.047,2.115-.107Z" transform="translate(-141.358 -336.956)" fill="#236092"/>
      <path id="Path_3831" data-name="Path 3831" d="M929.624,1514.488c2.316.092,4.628.21,6.938.122,1.088-.043,2.178-.048,3.267-.082,1.12-.035,2.237-.107,3.358-.136,4.769-.124,9.561.146,14.335.363,2.419.109,4.837.064,7.256.082,2.378.017,4.758.094,7.136.188,1.1.043,2.207.174,3.308.265q1.854.157,3.709.284c2.357.159,4.718.278,7.076.38q14.438.628,28.873,1.143,7.255.27,14.508.517c2.471.083,4.951.219,7.422.2,1.177-.011,2.355-.04,3.532-.052,1.085-.011,2.173.014,3.256-.02,2.393-.077,4.781-.133,7.176-.127,1.2,0,2.4-.053,3.6-.084s2.375-.01,3.559-.049c1.238-.04,2.476-.1,3.714-.139,1.165-.038,2.333-.023,3.5-.046,1.149-.025,2.3-.094,3.447-.119,1.206-.028,2.414-.021,3.618-.047,4.7-.105,9.386-.374,14.089-.338,1.21.009,2.419.035,3.629.058,1.183.022,2.36-.01,3.541-.036q3.358-.075,6.72-.01,2.024.04,4.047.1c1.382.04,2.753,0,4.13-.039,2.915-.085,5.83.014,8.747.053a3.547,3.547,0,0,0,3.65-3.531,3.838,3.838,0,0,0-3.65-3.77c-2.314-.086-4.633-.111-6.946-.094-1.206.009-2.412.053-3.616.089-1.065.031-2.132-.01-3.2-.039-2.171-.061-4.344-.1-6.513-.108-2.332,0-4.657.124-6.988.079s-4.682-.086-7.02-.032c-2.418.058-4.831.143-7.249.2-1.151.028-2.3.089-3.449.115-1.231.029-2.462.023-3.691.052-1.171.026-2.337.1-3.508.122-1.142.023-2.287.011-3.429.05-1.213.041-2.426.1-3.641.141-1.236.042-2.48.024-3.718.057-1.19.032-2.376.084-3.567.084-1.145,0-2.29,0-3.436.03-4.748.109-9.493.276-14.249.122q-14.492-.473-28.984-.854c-9.609-.263-19.233-.354-28.838-.987-1.115-.072-2.232-.178-3.349-.194-1.26-.018-2.518-.025-3.777-.034-2.412-.017-4.818.035-7.225.1-2.355.064-4.715,0-7.072-.039-2.38-.035-4.758-.065-7.136-.052-2.823.015-5.632.2-8.453.222-1.365.012-2.723.089-4.089.034l-4.348-.174a2.9,2.9,0,0,0-2.988,2.89,3.143,3.143,0,0,0,2.988,3.087Z" transform="translate(-221.71 -195.824)" fill="#236092"/>
      <path id="Path_3832" data-name="Path 3832" d="M1339.328,1513.238c.114,1.807.207,3.611.218,5.418q.013,2.749-.018,5.492-.027,2.671-.089,5.339c-.02.858-.046,1.715-.068,2.57-.011.417.01.837.032,1.256a7.8,7.8,0,0,0,.286,2.173,3.794,3.794,0,0,0,1.573,2.1,3.5,3.5,0,0,0,2.639.431,3.3,3.3,0,0,0,2.046-1.506,3.606,3.606,0,0,0,.344-2.627c-.026-.149-.05-.3-.072-.448-.178-1.532-.176-3.073-.21-4.609q-.059-2.555-.089-5.109c-.05-3.429-.137-6.846-.355-10.274a3.355,3.355,0,0,0-.913-2.235,3.23,3.23,0,0,0-2.205-.986,3.029,3.029,0,0,0-3.124,2.853c0,.054,0,.109.005.163Z" transform="translate(-445.912 -196.803)" fill="#236092"/>
      <path id="Path_3833" data-name="Path 3833" d="M1135.788,1708.883a12.115,12.115,0,0,1,.479,1.394q.2,1.511.4,3.017a17.391,17.391,0,0,1-.034,2.3c-.021.668-.039,1.337-.077,2-.057,1.068-.171,2.139-.221,3.209q0,.582-.008,1.163c0,.018,0,.037.006.055.068.6.131,1.207.177,1.813a6.38,6.38,0,0,0,.692,3.254,3.688,3.688,0,0,0,1.256,1.3,3.6,3.6,0,0,0,1.768.536,3.351,3.351,0,0,0,3.022-1.637,4.432,4.432,0,0,0,.562-2.11,4.71,4.71,0,0,0-.02-.7c-.037-.547-.093-1.093-.153-1.637-.052-.457-.107-.913-.15-1.37-.036-.413-.034-.831-.032-1.246,0-.164,0-.33,0-.494-.018-2.186-.064-4.371-.189-6.558-.209-3.664-.191-7.331-.175-11,0-1.065.009-2.13.007-3.195-.005-9.6-.075-19.208.021-28.807.025-2.386.109-4.77.227-7.152.114-2.326.087-4.655.1-6.986s.041-4.635.137-6.948c.05-1.156.129-2.315.125-3.475-.007-1.222-.02-2.445-.031-3.667q-.126-14.3-.176-28.6c-.013-4.7-.072-9.393-.125-14.093q-.042-3.577.007-7.149c.036-2.309.189-4.611.137-6.923-.059-2.728-.268-5.461-.548-8.182-.141-1.378-.253-2.757-.362-4.137-.116-1.5-.1-3.01-.141-4.509a2.89,2.89,0,0,0-2.744-2.834,2.658,2.658,0,0,0-2.744,2.654q.051,1.937.082,3.873c.016,1.165.11,2.335.177,3.5s.187,2.323.257,3.487q.107,1.816.15,3.629c.025,1.107.047,2.217.018,3.32-.028,1.18-.11,2.354-.182,3.53-.145,2.363-.214,4.73-.268,7.1-.212,9.445-.178,18.9-.248,28.348q-.051,7.082-.114,14.162c-.025,2.37,0,4.746-.1,7.114-.089,2.31-.282,4.61-.352,6.924-.069,2.376-.053,4.756-.126,7.132-.073,2.392-.25,4.775-.325,7.168-.154,4.784-.125,9.58-.134,14.37q-.006,3.217-.009,6.434a10.984,10.984,0,0,1,0,5.181q0,1.314,0,2.627,0,3.594,0,7.188c0,1.427-.03,2.861-.03,4.3q0,.663.01,1.325Z" transform="translate(-335.331 -226.846)" fill="#236092"/>
      <path id="Path_3834" data-name="Path 3834" d="M1141.444,1915.062a3.676,3.676,0,0,0,2.384,1.067,46.975,46.975,0,0,0,7.352.3c2.384-.1,4.764-.156,7.151-.156,2.453,0,4.9-.106,7.356-.1,2.314,0,4.629.073,6.945.156,4.933.176,9.866.385,14.8.58q3.511.139,7.024.273c1.277.047,2.553.1,3.829.125,1.172.022,2.346-.012,3.518-.029s2.362-.074,3.542-.123,2.362-.056,3.542-.114q3.615-.178,7.231-.343c2.328-.107,4.653-.249,6.985-.31,2.139-.056,4.262-.278,6.4-.3h.639a5.484,5.484,0,0,0,1.208-.125,3.586,3.586,0,0,0,2.225-5.31,3.831,3.831,0,0,0-1.3-1.345,3.632,3.632,0,0,0-2.685-.494c-.781.019-1.562.026-2.341.065-1.069.055-2.136.136-3.2.2-1.181.072-2.366.088-3.547.139-1.145.05-2.285.155-3.43.207-2.411.108-4.821.241-7.229.375-2.371.131-4.749.228-7.126.319-4.824.183-9.661-.035-14.5-.161-4.771-.124-9.542-.25-14.312-.332-2.489-.042-4.976-.081-7.465-.088-2.362-.006-4.719.077-7.079.118-2.4.041-4.8-.026-7.2.045a52.167,52.167,0,0,1-6.983-.173q-.674-.073-1.349-.149a3.162,3.162,0,0,0-2.384.91,3.276,3.276,0,0,0-.988,2.351,3.5,3.5,0,0,0,.988,2.416Z" transform="translate(-337.873 -413.3)" fill="#236092"/>
      <path id="Path_3835" data-name="Path 3835" d="M1333.518,1719.731a3.887,3.887,0,0,0,1.067,2.61,3.782,3.782,0,0,0,2.575,1.151,3.541,3.541,0,0,0,2.576-.982,3.641,3.641,0,0,0,1.067-2.54c.054-1.088.011-2.189.011-3.279v-3.265q0-3.546,0-7.092,0-7.182,0-14.367c0-9.691-.032-19.384-.005-29.072.014-4.854.088-9.7.371-14.534.137-2.334.155-4.678.3-7.012.15-2.373.209-4.751.319-7.128.057-1.181.144-2.359.214-3.538.071-1.232.109-2.468.155-3.7.089-2.4.091-4.787.068-7.19-.047-4.906-.068-9.816-.26-14.725q-.142-3.609-.432-7.211c-.187-2.315-.246-4.634-.416-6.952-.084-1.162-.2-2.324-.289-3.487-.087-1.193-.139-2.388-.225-3.583-.175-2.432-.439-4.856-.607-7.288-.073-1.053-.175-2.111-.21-3.167-.039-1.179-.064-2.359-.086-3.539-.037-2.13-.027-4.26-.011-6.389a2.628,2.628,0,0,0-2.5-2.584,2.431,2.431,0,0,0-2.5,2.419c-.018,2.406-.043,4.812-.093,7.217-.026,1.25-.064,2.5-.045,3.747.018,1.141.068,2.282.094,3.423.031,1.234.114,2.468.184,3.7s.085,2.472.107,3.707c.037,2.36.148,4.717.2,7.075.025,1.125.032,2.247.034,3.37,0,1.177.057,2.353.1,3.531.089,2.444.117,4.885.114,7.327-.007,4.863-.072,9.724-.114,14.586-.021,2.437-.118,4.859-.237,7.291-.116,2.374-.314,4.74-.444,7.115-.068,1.2-.1,2.411-.159,3.615s-.161,2.384-.232,3.577-.107,2.412-.152,3.618c-.041,1.153-.123,2.3-.191,3.455-.284,4.818-.311,9.654-.328,14.49-.02,4.779-.018,9.56-.02,14.34q-.01,14.563-.009,29.125v9.2c0,.594-.014,1.191-.014,1.787,0,.383.006.766.025,1.148Z" transform="translate(-442.745 -224.319)" fill="#236092"/>
      <path id="Path_3836" data-name="Path 3836" d="M1113.042,1285.616a3.619,3.619,0,0,0,2.048,1.642,3.35,3.35,0,0,0,4.216-2.256c.287-.993.667-1.962,1-2.939.344-1.017.7-2.031,1.042-3.049.669-1.992,1.343-3.984,2.052-5.961s1.4-3.963,2.084-5.951c.672-1.969,1.406-3.916,2.052-5.895.667-2.05,1.331-4.1,2.021-6.141s1.372-4.1,2.041-6.16c.676-2.079,1.438-4.128,2.11-6.209.68-2.1,1.328-4.211,2.011-6.312s1.534-4.169,2.331-6.243c.821-2.136,1.574-4.3,2.378-6.443.724-1.933,1.326-3.916,2-5.866s1.413-3.874,2.121-5.807c1.4-3.824,2.933-7.592,4.275-11.437.7-2.011,1.481-3.985,2.278-5.958s1.546-3.936,2.362-5.889l.343-.8-.241.56c1.406-3.318,2.609-6.7,3.739-10.128s2.33-6.844,3.425-10.292a3.807,3.807,0,0,0-2.553-4.578,3.633,3.633,0,0,0-2.815.275,3.588,3.588,0,0,0-1.678,2.128q-1.052,3.313-2.181,6.6c-.708,2.068-1.37,4.151-2.073,6.221q-1.03,3.036-2.216,6.01c-.833,2.079-1.711,4.136-2.5,6.235s-1.668,4.186-2.4,6.323-1.47,4.266-2.248,6.381c-1.459,3.965-2.9,7.93-4.132,11.979-.612,2.007-1.185,4.027-1.784,6.04-.321,1.074-.714,2.128-1.079,3.187s-.694,2.132-1.08,3.187c-.765,2.095-1.625,4.154-2.31,6.278-.675,2.1-1.3,4.214-1.986,6.311-.685,2.113-1.479,4.185-2.169,6.3-.662,2.023-1.311,4.042-2.009,6.052-.721,2.074-1.458,4.139-2.121,6.236-.617,1.956-1.376,3.857-2.073,5.782-1.012,2.786-2,5.581-3,8.373-.956,2.673-1.9,5.358-2.976,7.982-.23.526-.456,1.054-.656,1.592a2.414,2.414,0,0,0-.143.851,3.769,3.769,0,0,0,.487,1.8Z" transform="translate(-322.715 -8.352)" fill="#236092"/>
      <path id="Path_3837" data-name="Path 3837" d="M1202.571,1164.841a2.989,2.989,0,0,0,1.781,1.427,24.065,24.065,0,0,1,3.224.776c.982.334,1.929.745,2.9,1.114,1.1.419,2.2.821,3.3,1.223.55.2,1.1.386,1.65.589.507.188,1,.424,1.525.56a2.968,2.968,0,0,0,3.766-3.645,3.108,3.108,0,0,0-1.406-1.875,26.574,26.574,0,0,0-3.7-1.4c-1.11-.383-2.216-.776-3.324-1.167-.981-.348-1.952-.729-2.942-1.045a29.2,29.2,0,0,0-3.4-.818l-.791-.132a2.906,2.906,0,0,0-1.5.358,2.864,2.864,0,0,0-1.368,1.734,2.939,2.939,0,0,0-.105.782,3.068,3.068,0,0,0,.4,1.521Z" transform="translate(-371.398 -6.779)" fill="#236092"/>
      <path id="Path_3838" data-name="Path 3838" d="M1112.978,1293.024a3.45,3.45,0,0,0,1.167,1.207,3.326,3.326,0,0,0,1.643.5c.337.042.672.087,1.007.136,1.4.254,2.8.565,4.188.862a29.836,29.836,0,0,1,4.325,1.173q.275.148.538.317a3.716,3.716,0,0,0,2.032.631,3.562,3.562,0,0,0,1.749-.423,5.536,5.536,0,0,0,.835-.6,3.675,3.675,0,0,0,.972-1.5c.254-.524.5-1.047.735-1.583l-.243.566c.211-.458.418-.917.607-1.385.361-.836.719-1.671,1.011-2.539.33-.985.7-1.954,1.012-2.946.669-2.119,1.447-4.2,2.11-6.321.688-2.2,1.361-4.412,2.105-6.6q1.051-3.1,2.116-6.195t2.132-6.165c.7-2.015,1.509-3.986,2.271-5.979.766-2.009,1.574-4.005,2.289-6.034.756-2.145,1.5-4.293,2.282-6.428.73-1.992,1.579-3.937,2.318-5.927.706-1.9,1.546-3.746,2.259-5.645.781-2.085,1.49-4.2,2.237-6.294.384-1.079.775-2.153,1.144-3.236.364-1.064.667-2.149.98-3.233.65-2.246,1.4-4.459,2.052-6.705.632-2.169,1.236-4.347,1.879-6.511.648-2.184,1.552-4.274,2.33-6.409.737-2.024,1.388-4.081,2.091-6.119.539-1.561,1-3.15,1.54-4.709.559-1.6,1.177-3.167,1.759-4.754.54-1.472,1.1-2.947,1.546-4.452.494-1.681.9-3.387,1.4-5.064a3.063,3.063,0,0,0-2.05-3.68,2.874,2.874,0,0,0-3.613,1.933c-.651,2.164-1.142,4.381-1.866,6.522-.669,1.974-1.37,3.935-2.052,5.9-1.458,4.205-2.719,8.481-4.3,12.644-.789,2.081-1.7,4.128-2.327,6.271-.637,2.17-1.219,4.356-1.863,6.524-.664,2.241-1.451,4.438-2.114,6.677-.332,1.117-.646,2.237-1.015,3.34-.349,1.046-.728,2.083-1.092,3.124-.74,2.111-1.447,4.233-2.238,6.324-.728,1.93-1.579,3.806-2.316,5.732-.748,1.95-1.613,3.849-2.355,5.8-.821,2.159-1.61,4.331-2.425,6.493-.762,2.018-1.632,3.99-2.392,6.007-.739,1.963-1.545,3.9-2.264,5.868-.748,2.045-1.508,4.085-2.255,6.128-.762,2.086-1.5,4.183-2.274,6.261-.532,1.417-1.03,2.844-1.535,4.271-.524,1.487-.979,3-1.52,4.482-.489,1.343-1,2.681-1.47,4.03-.247.7-.484,1.4-.757,2.089-.217.549-.406,1.111-.624,1.66q-.079.183-.157.368-.161.347-.317.695c-.105.233-.211.466-.313.7-1-.248-2-.489-3-.746-2.091-.54-4.148-1.221-6.248-1.722a3.37,3.37,0,0,0-2.508.246,3.137,3.137,0,0,0-1.495,1.9,3.2,3.2,0,0,0-.116.857,3.347,3.347,0,0,0,.444,1.662Zm19.261.587.114-.265-.114.265Z" transform="translate(-322.704 -12.433)" fill="#236092"/>
      <path id="Path_3839" data-name="Path 3839" d="M1203.688,1271.445a2.675,2.675,0,0,0,1.165,1.555,2.777,2.777,0,0,0,1.955.319c.675-.089,1.349-.176,2.025-.253a19.018,19.018,0,0,1,3.013-.091l.011,0q.091.09.178.184a11.986,11.986,0,0,1,.755,1.477c.213.477.429.951.639,1.429.26.656.5,1.32.7,2,.248.841.423,1.7.616,2.555.365,1.625.74,3.248,1.1,4.874.767,3.484,1.3,7.009,1.827,10.528.257,2.06.451,4.124.667,6.187.235,2.274.533,4.542.815,6.812.318,2.569.742,5.129,1.138,7.689q.546,3.526,1.181,7.041c.394,2.2.807,4.4,1.133,6.617.344,2.333.66,4.667,1.05,6.994.373,2.223.716,4.448,1.078,6.67.371,2.28.8,4.555,1.2,6.831q.268,1.537.557,3.073c.187,1.007.351,2.02.573,3.021q.688,3.1,1.413,6.189c.454,1.945.821,3.909,1.244,5.858.2.931.362,1.869.571,2.8.167.739.341,1.474.47,2.219.02.208.035.416.046.626.007.167.01.336.016.5a4.623,4.623,0,0,0,.18,1.3,3.785,3.785,0,0,0,.933,1.633q.4.326.8.644a3.488,3.488,0,0,0,5.24-1.96,7.068,7.068,0,0,0,.052-2.874,37.679,37.679,0,0,0-.694-3.8c-.239-1.064-.428-2.141-.66-3.208-.228-1.046-.444-2.093-.662-3.141-.476-2.276-1.042-4.535-1.536-6.808-.49-2.252-.913-4.51-1.329-6.775-.84-4.559-1.586-9.128-2.339-13.7q-.564-3.425-1.07-6.859c-.325-2.214-.731-4.415-1.144-6.615-.6-3.245-1.2-6.5-1.7-9.758-.255-1.641-.557-3.276-.787-4.919q-.314-2.244-.636-4.487c-.277-2.193-.534-4.388-.846-6.579a122.237,122.237,0,0,0-2.584-13.768c-.261-1.024-.555-2.039-.824-3.061-.282-1.064-.571-2.137-.94-3.178a22.891,22.891,0,0,0-1.695-3.723,28.194,28.194,0,0,0-1.566-2.537,8.613,8.613,0,0,0-1.217-1.448,6.37,6.37,0,0,0-2.486-1.408,9.512,9.512,0,0,0-2.8-.218,46.808,46.808,0,0,0-5.056.482,2.338,2.338,0,0,0-1.516,1.117,2.488,2.488,0,0,0-.345,1.273,2.567,2.567,0,0,0,.09.674Zm13.9,23.872.03.23-.03-.23Z" transform="translate(-372.176 -65.151)" fill="#236092"/>
      <path id="Path_3840" data-name="Path 3840" d="M1149.391,1501.3a2.963,2.963,0,0,0,1.754,1.406c1.436.285,2.872.579,4.321.762a18.478,18.478,0,0,0,3.177.067c1.085-.048,2.164-.136,3.25-.159,1.126-.022,2.252-.008,3.379.034,4.778.182,9.562.62,14.339.582,4.287-.034,8.576.087,12.867.249,2.047.078,4.091.17,6.138.256l3.017.126a32.4,32.4,0,0,0,3.4.051l.96-.1a3.471,3.471,0,0,0,2.649-3.394,3.743,3.743,0,0,0-1.058-2.587,3.576,3.576,0,0,0-2.551-1.14,35.064,35.064,0,0,1-3.623.006q-1.633-.04-3.269-.075-3.479-.079-6.961-.153c-2.3-.051-4.609-.108-6.912-.1-2.442.005-4.876.133-7.317.151-1.9.016-3.8-.042-5.693-.046-2,0-3.995.013-5.989.068-1.82.051-3.636.123-5.451.251-.871.061-1.734.118-2.608.129a15.944,15.944,0,0,1-2.391-.177c-.707-.13-1.412-.271-2.117-.41a3.114,3.114,0,0,0-2.262.221,2.827,2.827,0,0,0-1.349,1.711,2.87,2.87,0,0,0-.1.771,3.034,3.034,0,0,0,.4,1.5Z" transform="translate(-342.51 -189.612)" fill="#236092"/>
      <path id="Path_3841" data-name="Path 3841" d="M1198.27,1296.024a2.147,2.147,0,0,0,1.538.687c.729-.062,1.457-.123,2.187-.179.216-.016.432-.035.649-.053,0,.11,0,.219,0,.329.052.885.136,1.751.247,2.628.3,2.189.715,4.362,1.035,6.548q.144,1.15.3,2.3c.29,2.3.51,4.6.772,6.906.243,2.156.323,4.317.5,6.476.182,2.208.384,4.416.539,6.626.077,1.075.207,2.147.293,3.223.091,1.115.137,2.233.232,3.347.184,2.142.417,4.271.7,6.4q.171,1.387.357,2.772c.14,1.129.275,2.258.421,3.386-.008-.064-.017-.128-.026-.192.145,1.166.246,2.333.4,3.5.157,1.206.3,2.413.457,3.62l-.048-.356c.136,1.107.3,2.208.456,3.311.132,1.127.257,2.251.407,3.377l-.129-.964q.214,1.662.444,3.324c.118.982.2,1.965.327,2.945.167,1.3.273,2.594.332,3.9.052,1.129.2,2.258.291,3.385.045.553.084,1.105.111,1.657a13.859,13.859,0,0,0,.234,2.5,3.776,3.776,0,0,0,3.481,2.765,3.533,3.533,0,0,0,1.823-.434,3.3,3.3,0,0,0,1.657-2.1,9.307,9.307,0,0,0,.13-1.969c-.018-.429-.044-.858-.073-1.285-.061-.944-.154-1.886-.248-2.827-.091-.913-.121-1.824-.187-2.738-.074-1.041-.2-2.076-.342-3.111-.085-.67-.145-1.342-.223-2.014-.124-1.076-.294-2.146-.457-3.218q-.14-1.057-.292-2.113c-.161-1.253-.323-2.5-.54-3.749-.184-1.055-.33-2.118-.494-3.176q.031.228.061.457c-.133-.978-.28-1.954-.421-2.93-.425-3.311-1.009-6.6-1.5-9.908-.244-1.995-.448-3.994-.585-6-.073-1.094-.178-2.188-.294-3.28s-.194-2.2-.289-3.3c-.189-2.161-.4-4.322-.559-6.485-.075-1.045-.112-2.088-.2-3.13-.1-1.219-.259-2.433-.378-3.648-.105-1.066-.249-2.128-.4-3.19-.213-1.64-.43-3.277-.683-4.912-.237-1.531-.615-3.042-.918-4.564-.143-.711-.3-1.419-.452-2.129s-.274-1.41-.453-2.1a12.057,12.057,0,0,0-.742-2.294,3.533,3.533,0,0,0-1.443-1.526,3.683,3.683,0,0,0-1.482-.428,3.161,3.161,0,0,0-.867.07c-.566.025-1.139-.008-1.708.017-.8.036-1.6.106-2.4.175a2.278,2.278,0,0,0-1.538.586,2.113,2.113,0,0,0-.637,1.519,2.256,2.256,0,0,0,.637,1.559Zm19.147,68.846q.04.284.077.569-.038-.284-.077-.569Zm-14.462-64.978c-.017-.13-.034-.26-.052-.391.017.13.034.26.052.391Zm-.052-.391-.008-.065q-.025-.184-.049-.369c.019.145.038.29.057.434Z" transform="translate(-368.936 -78.298)" fill="#236092"/>
      <path id="Path_3842" data-name="Path 3842" d="M1150.143,1475.138a3.055,3.055,0,0,0,2.18.974c1.155-.08,2.311-.181,3.47-.2,1.2-.016,2.4,0,3.6.029,2.289.052,4.578.145,6.867.241,2.375.1,4.751.21,7.127.312,1.136.048,2.276.073,3.411.178s2.3.231,3.447.329c1.643.14,3.288.249,4.933.344.845.047,1.693.077,2.54.138.89.067,1.784.226,2.676.213a3.215,3.215,0,0,0,3.172-2.312,3.428,3.428,0,0,0-2.3-4.12,20.11,20.11,0,0,0-4.4-.559c-1.124-.051-2.25-.091-3.374-.148-1.181-.058-2.36-.12-3.54-.205-1.16-.084-2.319-.2-3.481-.258-2.391-.112-4.787-.122-7.177-.17q-3.46-.068-6.919-.141c-1.681-.037-3.362-.074-5.042-.076s-3.346.115-5.015.234l-.819.082a2.967,2.967,0,0,0-2.266,2.9,3.2,3.2,0,0,0,.9,2.21Z" transform="translate(-342.644 -174.795)" fill="#236092"/>
      <path id="Path_3843" data-name="Path 3843" d="M1145.447,1480.553c.039.618.091,1.234.164,1.85.112.937.205,1.887.408,2.811a3.08,3.08,0,0,0,3.636,2.185,2.838,2.838,0,0,0,1.766-1.3c.1-.233.2-.464.3-.7a2.971,2.971,0,0,0,0-1.57c-.106-.665-.2-1.33-.295-2-.081-.717-.136-1.437-.182-2.157-.062-.949-.016-1.909-.011-2.861a3.071,3.071,0,0,0-2.928-3.021,2.84,2.84,0,0,0-2.926,2.83q0,.584-.005,1.166c0,.92.014,1.839.073,2.761Z" transform="translate(-340.545 -177.014)" fill="#236092"/>
      <path id="Path_3844" data-name="Path 3844" d="M753.071,1184.9a30.337,30.337,0,0,0,.641,4.108c.244,1.025.553,2.027.888,3.03a35.687,35.687,0,0,0,1.524,3.865,21.2,21.2,0,0,0,1.638,2.833,45.206,45.206,0,0,0,4.448,5.579c.762.817,1.625,1.546,2.443,2.31a34.446,34.446,0,0,0,3.331,2.8c.977.707,1.955,1.4,2.994,2.009a33.541,33.541,0,0,0,3.141,1.577c1.267.58,2.546,1.1,3.848,1.589.935.35,1.891.7,2.853.96a27.276,27.276,0,0,0,3.877.752,23.6,23.6,0,0,0,3.231.215,34.188,34.188,0,0,0,4.305-.333,20.472,20.472,0,0,0,3.331-.8c1.215-.379,2.407-.786,3.586-1.265a21.418,21.418,0,0,0,2.831-1.457c.887-.524,1.745-1.094,2.585-1.688,1.083-.765,2.164-1.526,3.192-2.366a21.7,21.7,0,0,0,2.084-1.934,33.869,33.869,0,0,0,2.343-2.922,25.788,25.788,0,0,0,1.581-2.339c.5-.842.935-1.718,1.374-2.592a36.405,36.405,0,0,0,2.564-6.535,43.882,43.882,0,0,0,1.488-7.434,51.624,51.624,0,0,0,.077-6.474c-.023-.98-.045-1.962-.082-2.944a24.775,24.775,0,0,0-.489-3.668,34.041,34.041,0,0,0-2.132-6.921c-.407-.953-.887-1.868-1.352-2.8a24.588,24.588,0,0,0-1.431-2.571,23.146,23.146,0,0,0-5.117-5.136l.649.522c-1.069-.863-2.173-1.662-3.276-2.476a22.534,22.534,0,0,0-3.317-2.1,23.549,23.549,0,0,0-2.553-1.1,15.974,15.974,0,0,0-2.8-.609c-1.535-.252-3.076-.432-4.616-.624a2.808,2.808,0,0,0-1.459.348,2.7,2.7,0,0,0-.31.2q-.242-.042-.484-.078a22.782,22.782,0,0,0-3.354-.243,29.316,29.316,0,0,0-6.935.8,38.1,38.1,0,0,0-6.144,2.084,28.947,28.947,0,0,0-5.569,3.209,28.166,28.166,0,0,0-2.849,2.337c-.376.364-.751.728-1.111,1.109s-.653.781-.98,1.17c-.858,1.023-1.734,2.031-2.526,3.109-.638.87-1.176,1.808-1.745,2.724a50.456,50.456,0,0,0-3.249,6.075c-.558,1.256-1.092,2.516-1.532,3.822-.328.974-.548,1.98-.783,2.982a35.023,35.023,0,0,0-.646,4.04,13.5,13.5,0,0,0-.089,1.582c0,.555.03,1.112.082,1.665Zm6.587-2.487a20.926,20.926,0,0,1,.181-2.241c.19-1.288.4-2.582.714-3.84a31.492,31.492,0,0,1,1.475-4.247c.872-1.962,1.873-3.857,2.88-5.75a37.765,37.765,0,0,1,3.4-5.048,29.653,29.653,0,0,1,4.522-4.245,28.179,28.179,0,0,1,5.688-3.161,28.933,28.933,0,0,1,6.517-1.663c.9-.073,1.787-.111,2.689-.112a17.213,17.213,0,0,1,2.538.216l.053.01a2.9,2.9,0,0,0,1.666,1.283c1.338.288,2.667.6,3.987.971a26.805,26.805,0,0,1,3.118,1.04,26.158,26.158,0,0,1,3.741,2.322c1.076.778,2.19,1.5,3.237,2.315a18.31,18.31,0,0,1,2.37,2.261,21.715,21.715,0,0,1,1.392,2.4c.443.86.9,1.707,1.3,2.584a28.53,28.53,0,0,1,1.392,5.381c.081.757.126,1.512.133,2.274.011,1-.059,2.01-.091,3.01-.065,2.022-.093,4.046-.311,6.053a34.033,34.033,0,0,1-1.086,4.554c-.477,1.563-.913,3.129-1.5,4.653a35.5,35.5,0,0,1-1.995,3.815,40.388,40.388,0,0,1-2.418,3.452,23.624,23.624,0,0,1-3.416,3.2c-.857.619-1.731,1.221-2.624,1.783a25.378,25.378,0,0,1-3.443,1.894,27.2,27.2,0,0,1-5.886,1.565,24.1,24.1,0,0,1-2.824.086,24.882,24.882,0,0,1-2.707-.259,38.72,38.72,0,0,1-7.36-2.483,27.841,27.841,0,0,1-2.725-1.419,36.454,36.454,0,0,1-3.091-2.116c-.588-.5-1.155-1.031-1.735-1.546-.657-.583-1.324-1.173-1.943-1.794a42.26,42.26,0,0,1-3.4-3.923q-.76-1.042-1.424-2.15a16.419,16.419,0,0,1-.928-1.866,34.046,34.046,0,0,1-1.99-6.924,20.555,20.555,0,0,1-.1-2.336Zm17.9,24.333.231.105-.231-.105Zm-9.061-52.461.183-.135-.3.22.116-.085Zm-.116.085-.19.141.19-.141Z" transform="translate(-127.373)" fill="#236092"/>
      <path id="Path_3845" data-name="Path 3845" d="M721.521,1767.36c.063,1.2.131,2.392.171,3.587.039,1.136.031,2.27.084,3.4.05,1.076.18,2.148.239,3.224.064,1.16.1,2.321.118,3.481.084,4.625.025,9.25.018,13.874,0,.315,0,.632,0,.945.005,1.474.011,2.948-.127,4.411-.084.893-.148,1.787-.185,2.683-.018.424-.041.842-.089,1.264a9.337,9.337,0,0,0-.125,1.262,3.741,3.741,0,0,0,2.6,3.505,3.466,3.466,0,0,0,4.007-1.5,10.172,10.172,0,0,0,.9-4.5c.057-1.165.179-2.32.266-3.482.077-1.032.029-2.083.027-3.12,0-1.131,0-2.262-.005-3.394-.011-4.616.005-9.236-.143-13.857-.06-1.9-.258-3.8-.282-5.7-.023-1.951-.118-3.9-.219-5.852a3.883,3.883,0,0,0-1.063-2.6,3.77,3.77,0,0,0-2.567-1.147,3.523,3.523,0,0,0-3.635,3.352c0,.053,0,.106,0,.16Z" transform="translate(-110.275 -334.592)" fill="#236092"/>
      <path id="Path_3846" data-name="Path 3846" d="M777.49,1807.8a3.32,3.32,0,0,0,.445,1.656,3.424,3.424,0,0,0,1.943,1.557,3.182,3.182,0,0,0,4-2.14,12.051,12.051,0,0,0,.3-2.3c.052-.53.106-1.062.154-1.592.106-1.158.073-2.333.13-3.495.05-.991.157-1.983.152-2.975-.009-1.106-.023-2.211-.028-3.316-.023-4.564-.005-9.129-.123-13.695q-.056-2.138-.185-4.277c-.043-.72-.107-1.442-.12-2.164-.018-.821.036-1.644.068-2.464a3.14,3.14,0,0,0-3-3.1,2.921,2.921,0,0,0-3,2.9c-.048,1.247-.093,2.482-.028,3.733q.086,1.683.128,3.369c.059,2.33.061,4.66.071,6.991.011,2.2,0,4.4-.02,6.6,0,.566,0,1.131,0,1.7a46.693,46.693,0,0,1-.139,4.775c-.134,1.36-.253,2.719-.337,4.085-.045.734-.154,1.456-.246,2.183a12.814,12.814,0,0,0-.182,1.609,3.2,3.2,0,0,0,.02.363Z" transform="translate(-140.672 -337.657)" fill="#236092"/>
      <path id="Path_3847" data-name="Path 3847" d="M634.469,1855.731c4.874.142,9.748.377,14.622.537q7.009.232,14.011.7c4.542.306,9.084.6,13.625.967,4.456.363,8.915.69,13.375.947,2.23.127,4.455.025,6.683.046,2.264.021,4.53.1,6.8.185q3.07.114,6.139.228c1.087.041,2.178.046,3.261.184,1.106.14,2.211.263,3.32.351,3.775.3,7.565.361,11.341.486l5.3.177,2.391.078,1.6.052c.39.013.786.011,1.176.044.8.151,1.589.294,2.391.4.194.046.387.095.583.138.516.112,1.037.2,1.558.272a12.469,12.469,0,0,1,1.839.548,20.174,20.174,0,0,1,2.38,1.311c.211.211.409.438.6.668a13.089,13.089,0,0,1,1.124,1.84c.274.742.5,1.5.718,2.26.191.671.415,1.311.555,1.987a14.309,14.309,0,0,1,.033,2.319,15.853,15.853,0,0,1-.634,2.211,14.035,14.035,0,0,1-1.332,2.233,10.933,10.933,0,0,1-1.237,1.259,13.708,13.708,0,0,1-1.793,1.031,14.335,14.335,0,0,1-2.649.625,18.547,18.547,0,0,1-3.484.026,7.156,7.156,0,0,1-.794-.247,28.388,28.388,0,0,1-4.126-2.527,16.382,16.382,0,0,1-1.763-1.643c-.075-.124-.146-.253-.213-.383-.012-.044-.023-.088-.033-.132-.026-.395-.038-.79-.063-1.184a20.79,20.79,0,0,0-.459-2.4c-.107-.925-.193-1.851-.317-2.776l.112.84a17.961,17.961,0,0,0-.216-1.945,3,3,0,0,0-2.007-2.073,2.885,2.885,0,0,0-1.527-.05l-.687.266a2.76,2.76,0,0,0-1.031,1,5.484,5.484,0,0,0-.86,2.823c-.063.5-.1,1-.111,1.513a14.214,14.214,0,0,0,.283,2.721c.014.377-.007.756.027,1.134a7.484,7.484,0,0,0,.384,2.052,5.973,5.973,0,0,0,.578,1.236c.116.17.225.339.332.512a9.008,9.008,0,0,0,2.284,2.3q-.332-.265-.664-.534c.329.273.661.543,1,.808a27.626,27.626,0,0,0,2.5,1.931c.894.58,1.8,1.13,2.712,1.675a19.092,19.092,0,0,0,2.012,1.013,9.582,9.582,0,0,0,2.459.6,13.405,13.405,0,0,0,1.6.113c.612.02,1.226.044,1.837.037a20.65,20.65,0,0,0,3.763-.351,14.21,14.21,0,0,0,3.694-1.3,13.644,13.644,0,0,0,5.627-5.385,17.591,17.591,0,0,0,1.662-4.051,15.5,15.5,0,0,0,.391-2.235,9.747,9.747,0,0,0,.091-1.579c-.02-.551-.052-1.1-.114-1.651a12.977,12.977,0,0,0-.437-2.473c-.351-1.1-.658-2.22-1.047-3.308a16.146,16.146,0,0,0-.985-2.248,13.689,13.689,0,0,0-.912-1.42c-.441-.614-.9-1.212-1.392-1.783a8.458,8.458,0,0,0-1.561-1.379,16.688,16.688,0,0,0-2.2-1.256,15.858,15.858,0,0,0-3.334-1.4c-.669-.159-1.336-.285-2.009-.4-.374-.077-.743-.171-1.117-.255-.648-.148-1.3-.2-1.956-.284-.213-.043-.426-.089-.638-.135a13.222,13.222,0,0,0-2.475-.266l-3.242-.107-6.176-.2c-2.348-.077-4.7-.151-7.045-.24-2.06-.08-4.127-.162-6.18-.386-1.129-.123-2.241-.259-3.374-.293q-1.554-.043-3.111-.086c-2.118-.057-4.237-.112-6.355-.146-2.311-.037-4.619-.034-6.923.051-1.085.041-2.168.1-3.254.122-1.109.019-2.225-.01-3.336-.017-4.428-.024-8.851.065-13.278.109q-6.928.07-13.86.045c-4.333-.019-8.667-.115-13-.255-4.485-.143-8.971-.221-13.456-.352a2,2,0,0,0-2.059,1.99,2.163,2.163,0,0,0,2.059,2.126Z" transform="translate(-61.865 -382.274)" fill="#236092"/>
      <path id="Path_3848" data-name="Path 3848" d="M620.234,1857.581a2.37,2.37,0,0,0,2.159,1.714,3.463,3.463,0,0,0,1.771-.51c.148-.042.3-.078.444-.124.252-.079.5-.163.748-.259s.508-.2.771-.278c.346-.1.708-.164,1.06-.245.562-.13,1.124-.267,1.7-.344.692-.092,1.383-.183,2.075-.278a1.525,1.525,0,0,0,.988-.729,1.645,1.645,0,0,0,.166-1.268,1.737,1.737,0,0,0-.76-1.015,1.791,1.791,0,0,0-1.274-.208c-.692.1-1.384.188-2.079.266-.507.057-1.007.151-1.512.22-.281.017-.561.021-.843.04-.35.023-.7.066-1.047.108-.434.017-.862-.049-1.3-.035a10.314,10.314,0,0,0-1.047.115,2.254,2.254,0,0,0-1.447.673,2.147,2.147,0,0,0-.576.968,2.285,2.285,0,0,0-.079.592,2.344,2.344,0,0,0,.079.6Z" transform="translate(-55.207 -383.572)" fill="#236092"/>
      <path id="Path_3849" data-name="Path 3849" d="M596.653,1871.8a17.42,17.42,0,0,0,.783,4.207,16.852,16.852,0,0,0,.864,2.171,8.932,8.932,0,0,0,.931,1.593,18.071,18.071,0,0,0,1.543,1.881,16.061,16.061,0,0,0,1.971,1.643,14.719,14.719,0,0,0,1.378.939,18.18,18.18,0,0,0,2.148,1.005,22.732,22.732,0,0,0,3.252,1.108,22.428,22.428,0,0,0,3.9.711,10.824,10.824,0,0,0,3.979-.3,16.446,16.446,0,0,0,3.468-1.5,15.478,15.478,0,0,0,1.309-.865,16.337,16.337,0,0,0,1.837-1.44,21.4,21.4,0,0,0,2.482-2.821,16.43,16.43,0,0,0,1.4-2.457,27.628,27.628,0,0,0,1.211-2.834,10.2,10.2,0,0,0,.492-2.835c.037-.648.032-1.3.027-1.953a12.915,12.915,0,0,0-.344-2.262c-.006-.072-.011-.144-.015-.217.447.013.894.035,1.339.05,1.106.037,2.212.065,3.319.1,2.18.063,4.357.375,6.537.516,1.128.073,2.257.117,3.386.15,1.176.037,2.357.036,3.533.13,2.207.177,4.4.382,6.615.472,4.414.18,8.829.266,13.245.44,4.532.177,9.065.393,13.6.611,4.416.212,8.828.53,13.242.787,2.344.137,4.688.288,7.034.357,2.125.063,4.25.093,6.375.132.346.006.692.012,1.039.02.141,0,.282.008.422.007a5.036,5.036,0,0,0,1-.091,4.867,4.867,0,0,0,1.092-.39,3.168,3.168,0,0,0,1.188-1.15,3.218,3.218,0,0,0,.452-1.656,3.375,3.375,0,0,0-.452-1.687,3.322,3.322,0,0,0-1.98-1.588,10.323,10.323,0,0,0-1.5-.22c-.236-.01-.469-.021-.7-.032l-1.608-.076-3.083-.136c-2.36-.11-4.717-.166-7.078-.186-4.448-.037-8.892,0-13.338-.066-8.94-.125-17.885-.294-26.825-.721-2.207-.106-4.414-.23-6.616-.478-1.136-.126-2.271-.278-3.411-.343s-2.307-.117-3.459-.176c-2.171-.114-4.328-.3-6.494-.522-1.12-.115-2.241-.154-3.365-.19s-2.263-.074-3.393-.059a11.436,11.436,0,0,0-2.548.252,4.256,4.256,0,0,0-2,1.052,3.212,3.212,0,0,0-.915,2.136,2.222,2.222,0,0,0,.11.86c.022.452.033.9.067,1.354.039.528.116,1.054.2,1.578.046.3.121.588.187.881.01.389-.024.786-.039,1.17s-.04.772-.078,1.157a7.4,7.4,0,0,1-.365,1.268l-.094.216c-.29.619-.656,1.208-1,1.8-.3.513-.59,1.027-.928,1.512a10.3,10.3,0,0,1-4.026,2.856,13,13,0,0,1-2.186.6,8.143,8.143,0,0,1-1.069-.01c-.422-.038-.844-.091-1.264-.151a24.005,24.005,0,0,1-4.686-1.485,11.085,11.085,0,0,1-1.088-.584,14.172,14.172,0,0,1-1.184-.845,11.448,11.448,0,0,1-1.268-1.283,9.733,9.733,0,0,1-.661-1.164,16.951,16.951,0,0,1-.813-2.874c-.058-.73-.045-1.464-.053-2.194-.005-.581-.013-1.163.028-1.74a11.1,11.1,0,0,1,.527-1.747,21.886,21.886,0,0,1,2.288-3.9,17.49,17.49,0,0,1,2.452-2.379,23.424,23.424,0,0,1,4.229-2.085,15.172,15.172,0,0,1,2.016-.612c.785-.171,1.583-.286,2.382-.379l.79-.062a2.3,2.3,0,0,0,1.57-.6,2.156,2.156,0,0,0,.651-1.549,2.306,2.306,0,0,0-.651-1.593,2.2,2.2,0,0,0-1.57-.7,42.323,42.323,0,0,0-4.36.53c-1.049.19-2.055.491-3.081.771a30.639,30.639,0,0,0-3.022.993,13.262,13.262,0,0,0-1.893.844,16.391,16.391,0,0,0-1.565,1.076,21.756,21.756,0,0,0-2.2,1.819,23.952,23.952,0,0,0-2.549,3.079,18.172,18.172,0,0,0-1.584,2.583,15.782,15.782,0,0,0-.856,1.954,11.368,11.368,0,0,0-.419,2.223,22.406,22.406,0,0,0-.207,2.954c0,.213,0,.426.011.637Z" transform="translate(-42.433 -382.665)" fill="#236092"/>
      <path id="Path_3850" data-name="Path 3850" d="M1136.93,1914.483a52.4,52.4,0,0,1,6.1.075c.223.02.446.041.669.059a2.821,2.821,0,0,0,2.917-2.821,3.035,3.035,0,0,0-.855-2.092,2.916,2.916,0,0,0-2.062-.92c-1.083.055-2.162.145-3.247.2-1.112.052-2.223.109-3.333.175l-.177.01q0,.7-.005,1.395c0,.939-.023,1.882-.023,2.825,0,.365,0,.731.011,1.1Z" transform="translate(-335.951 -413.331)" fill="#236092"/>
      <path id="Path_3851" data-name="Path 3851" d="M1136.708,1881.7q.2,1.511.4,3.018a9.051,9.051,0,0,1,.011,1.377c.235.018.47.043.7.075.144.022.289.047.433.073a2.5,2.5,0,0,0,2.593-2.509,2.716,2.716,0,0,0-3.283-2.607c-.323.072-.65.126-.979.171q.063.2.119.4Z" transform="translate(-335.772 -398.275)" fill="#236092"/>
      <path id="Path_3852" data-name="Path 3852" d="M856.371,1918.382a1.732,1.732,0,0,0,2.045,1.228,28.492,28.492,0,0,1,3.57-.953c1.174-.077,2.359-.055,3.542-.02,1.363.041,2.726.088,4.091.157,2.819.142,5.64.342,8.459.5,1.347.076,2.7.176,4.046.206,1.484.031,2.967.028,4.451.03s2.951-.087,4.426-.115q1.037-.021,2.073-.02.095-2.035.243-4.067c.014-.194.03-.388.046-.582-1.373.037-2.741.106-4.11.2-1.445.092-2.888.153-4.337.2-2.853.092-5.705.043-8.564.022-2.776-.021-5.55,0-8.326-.02-1.763-.011-3.529-.035-5.286.062a12.146,12.146,0,0,0-2.644.381c-.861.243-1.7.547-2.562.789a1.617,1.617,0,0,0-1.161,2.007Z" transform="translate(-183.504 -416.571)" fill="#236092"/>
      <path id="Path_3853" data-name="Path 3853" d="M992.355,1919.052c2.892-.032,5.789-.006,8.678-.119,1.35-.054,2.7-.056,4.055-.126,1.37-.071,2.739-.126,4.112-.131,2.756-.011,5.515.094,8.273.2,1.469.059,2.933.135,4.4.112,1.4-.02,2.794-.026,4.189-.057,2.878-.064,5.748-.158,8.631-.1,1.477.031,2.956.086,4.435.094,1.34.007,2.678-.057,4.018-.061,3.136-.008,6.275-.014,9.409-.047,2.7-.027,5.4-.147,8.111-.059,2.66.089,5.331.327,7.989.287,1.374-.019,2.744-.079,4.119-.09s2.76,0,4.141.016c2.708.033,5.416.081,8.125.129,1.408.025,2.815.059,4.223.087,1.483.027,2.965-.056,4.448-.079,1.467-.023,2.937,0,4.4-.018s2.918-.09,4.378-.127c1.429-.039,2.853-.138,4.28-.2,1.381-.06,2.766-.079,4.15-.068,1.423.013,2.849.045,4.273.085,1.322.036,2.648.113,3.968.1,2.9-.039,5.791-.05,8.694.008,2.828.055,5.659.166,8.487.273,5.834.22,11.666.457,17.5.68,1.413.053,2.826.12,4.237.1s2.8-.051,4.2-.058c2.867-.018,5.738.088,8.609.166,2.765.076,5.532.121,8.3.172,1.374.025,2.747.074,4.119.028,1.317-.046,2.63-.139,3.947-.194,1.293-.054,2.59-.045,3.882-.1,1.376-.058,2.746-.169,4.121-.236,2.846-.139,5.715-.118,8.542-.446.964-.113,1.921-.253,2.88-.4,1.112-.17,2.23-.292,3.342-.454a1.712,1.712,0,0,0,1.313-1.684,1.884,1.884,0,0,0-1.79-1.848c-1.35-.067-2.694-.261-4.039-.409-1.263-.139-2.528-.144-3.791-.258-2.685-.245-5.366-.381-8.057-.356-1.316.01-2.627,0-3.946-.051-1.372-.052-2.742-.1-4.114-.121-1.327-.016-2.655.024-3.984-.029-1.377-.056-2.754-.128-4.132-.192-5.662-.273-11.32-.439-16.979-.366-1.36.018-2.718.075-4.079.041-1.465-.037-2.929-.082-4.4-.121q-4.285-.116-8.567-.228c-5.809-.147-11.62-.344-17.425-.375-1.378-.008-2.753-.006-4.128.025-1.474.034-2.945.084-4.421.057-2.753-.053-5.509-.159-8.26-.141-1.381.008-2.758.056-4.136.125-1.457.072-2.917.1-4.378.138-2.9.079-5.8.022-8.694.063s-5.771-.12-8.66-.25c-2.686-.122-5.373-.246-8.06-.289-1.451-.024-2.9-.029-4.348,0-1.334.028-2.662.088-4,.062-2.586-.051-5.171-.126-7.748.012-2.815.152-5.616.394-8.441.435-3.07.046-6.148.047-9.216.137-1.358.041-2.708.095-4.068.077-1.452-.021-2.9-.043-4.353-.037-2.9.012-5.784.19-8.68.252-1.459.031-2.915.126-4.376.108-1.427-.017-2.856-.047-4.284-.063-2.735-.029-5.467-.051-8.194.068-1.352.059-2.7.159-4.053.188-1.4.029-2.787.094-4.182.131-1.449.04-2.9.026-4.352.052-1.4.025-2.8.094-4.207.069l-.859-.015c-.026,1.785-.087,3.566-.241,5.342.887.044,1.774.084,2.659.074Z" transform="translate(-255.969 -415.154)" fill="#236092"/>
      <path id="Path_3854" data-name="Path 3854" d="M519.131,1921.611c1.25-.075,2.5-.152,3.758-.184,1.236-.032,2.476.04,3.714.027,1.169-.014,2.338-.011,3.506-.024,1.131-.015,2.268-.011,3.4-.055,2.36-.089,4.723-.234,7.088-.242q1.691-.006,3.381.063c1.188.048,2.373.056,3.561.074,2.454.034,4.9.155,7.358.275,2.423.119,4.842.042,7.256-.067,2.3-.1,4.576-.371,6.869-.524.514-.035,1.028-.091,1.541-.135.556-.046,1.115-.056,1.672-.086,1.177-.067,2.353-.137,3.536-.154s2.385-.036,3.581-.086c1.152-.049,2.31-.058,3.465-.049,2.364.021,4.728.1,7.09.213,1.215.054,2.427.114,3.641.111,1.117,0,2.232-.041,3.351-.037,2.485.01,4.971.083,7.456.144,1.2.031,2.4,0,3.595-.017,1.235-.017,2.471-.025,3.705-.075q1.9-.077,3.805-.124c1.174-.029,2.348-.014,3.52-.054,2.453-.083,4.908-.1,7.362-.181,1.163-.039,2.328-.052,3.491-.111,1.188-.059,2.378-.123,3.57-.125s2.387.016,3.58.042c1.142.025,2.285-.027,3.425-.038,2.425-.022,4.85-.073,7.274-.129,2.346-.053,4.689-.151,7.031-.259,1.168-.052,2.341-.059,3.509-.117s2.341-.117,3.513-.152c1.209-.034,2.408-.119,3.615-.194s2.412-.106,3.616-.2c2.33-.179,4.66-.237,7-.222,1.065.008,2.127-.043,3.192-.086,1.128-.045,2.258-.067,3.39-.082,2.31-.031,4.624-.018,6.936,0,1.144.009,2.284.021,3.422-.043s2.28-.1,3.417-.182c1.185-.084,2.369-.192,3.559-.224,1.29-.036,2.576-.062,3.863-.118,1.939-.086,3.883-.067,5.824-.1q.1-2.056.244-4.107.064-.862.149-1.721l-.285.014c-1.154.062-2.31.078-3.467.106-1.127.027-2.251.087-3.377.153-1.235.072-2.473.067-3.709.119-1.169.051-2.334.12-3.5.144-1.188.026-2.38.013-3.568.017-1.131,0-2.269-.092-3.4-.144-2.317-.109-4.632-.2-6.947-.2-1.119,0-2.235.016-3.352.042s-2.205.011-3.311-.014c-1.176-.028-2.349-.036-3.522-.005-1.149.032-2.294.112-3.44.173-1.2.061-2.394.054-3.589.12s-2.413.115-3.62.167-2.4.155-3.6.223c-1.115.065-2.23.1-3.343.188-1.2.093-2.394.166-3.593.234-1.163.065-2.325.157-3.49.208q-1.833.079-3.663.2c-1.22.083-2.446.113-3.668.171-1.109.051-2.216.127-3.329.151-1.2.025-2.4.05-3.6.1s-2.376.153-3.562.233c-1.171.08-2.344.116-3.515.181-1.256.071-2.512.109-3.77.143-1.193.034-2.385.1-3.58.138-1.244.039-2.487.045-3.731.081-1.2.034-2.391.1-3.588.141-1.238.047-2.48.052-3.72.081-1.263.028-2.525.033-3.791.013-2.411-.038-4.823-.085-7.229-.028-1.137.027-2.269.1-3.406.119-1.217.021-2.437-.01-3.656-.024-2.341-.026-4.68-.039-7.017.047q-1.648.064-3.288.2c-1.288.1-2.58.185-3.864.318-2.116.219-4.216.561-6.326.82-1.061.1-2.12.223-3.179.344q-1.086.106-2.168.225c-2.1.2-4.209.353-6.319.469-1.163.065-2.328.07-3.493.107-1.186.038-2.373.086-3.557.16-2.262.14-4.517.327-6.783.436s-4.535.417-6.8.676q-1.477.147-2.953.3-3.428.282-6.86.5c-1.179.074-2.362.067-3.541.114-1.254.052-2.505.128-3.758.2a.583.583,0,0,0-.6.576.621.621,0,0,0,.6.615Zm17.125-2.313c.08-.01.159-.018.239-.024l-.239.024Z" transform="translate(0 -415.217)" fill="#236092"/>
      <path id="Path_3855" data-name="Path 3855" d="M994.062,1916.469c1.144.009,2.291.029,3.431-.032,1.365-.073,2.73-.166,4.086-.317,2.219-.249,4.428-.547,6.635-.865a2.106,2.106,0,0,0,1.609-2.062,2.272,2.272,0,0,0-.643-1.571,2.195,2.195,0,0,0-1.548-.691c-2.48.111-4.971.11-7.457.041-1.161-.033-2.321-.012-3.483-.05s-2.295-.135-3.442-.185c-1.046-.044-2.1-.087-3.145-.113q0,.29,0,.58c-.012,1.744-.038,3.486-.135,5.222,1.366.009,2.731.035,4.1.044Z" transform="translate(-256.116 -414.332)" fill="#236092"/>
      <path id="Path_3856" data-name="Path 3856" d="M938.317,1862.211a3.522,3.522,0,0,0,3.627-3.508,52.362,52.362,0,0,1,.185-5.317,13.723,13.723,0,0,0,.167-1.776c.005-.49,0-.979.009-1.47.016-1.025.066-2.048.164-3.067.044-.452.105-.9.137-1.351.036-.516.038-1.039.059-1.557a29.85,29.85,0,0,0,.054-3.067c-.143-2.34-.338-4.685-.662-7.013q-.2-1.411-.523-2.8c-.109-.46-.23-.919-.339-1.38-.127-.541-.188-1.1-.279-1.647-.139-.843-.305-1.683-.44-2.529-.1-.859-.161-1.722-.25-2.58-.091-.882-.19-1.763-.266-2.647-.177-2.026-.323-4.053-.511-6.081a1.152,1.152,0,0,0-1.087-1.12,1.046,1.046,0,0,0-1.086,1.049c.112,1.215.239,2.429.257,3.646.018,1.012-.063,2.025-.141,3.032s-.192,2-.294,3c-.053.53-.114,1.063-.128,1.6-.016.593,0,1.188,0,1.782,0,.527-.023,1.05-.048,1.576-.029.572-.055,1.146-.05,1.72.01.96.018,1.918-.039,2.875-.123,2.1-.3,4.2-.457,6.3-.059.775-.087,1.552-.174,2.323-.131.943-.254,1.886-.356,2.834-.06.356-.126.712-.184,1.069-.128.809-.228,1.625-.311,2.443-.111,1.116-.1,2.244-.2,3.359-.164,1.171-.325,2.338-.388,3.526-.054,1.008-.075,2.022-.077,3.034a3.813,3.813,0,0,0,3.629,3.746Z" transform="translate(-226.085 -361.456)" fill="#236092"/>
      <path id="Path_3857" data-name="Path 3857" d="M980.445,1870.125a3.372,3.372,0,0,0,1.909,1.531,3.111,3.111,0,0,0,3.93-2.1,19.266,19.266,0,0,0,.3-2.313c.052-.51.069-1.022.085-1.537.036-1.143.163-2.275.207-3.415.079-2.131.281-4.258.535-6.371.338-2.437.633-4.881.948-7.323.247-1.658.524-3.3.843-4.95.317-1.627.628-3.257.915-4.891.61-3.459,1.24-6.915,1.763-10.393a2.1,2.1,0,0,0-.192-1.479,2.016,2.016,0,0,0-1.144-.917,1.9,1.9,0,0,0-1.472.144,1.75,1.75,0,0,0-.88,1.115c-.7,4.66-1.772,9.237-2.861,13.806-.532,2.223-1.083,4.435-1.549,6.675-.494,2.382-.969,4.766-1.476,7.143-.255,1.2-.46,2.422-.685,3.633-.216,1.169-.377,2.348-.523,3.528-.091.576-.2,1.149-.294,1.724-.1.6-.184,1.2-.264,1.8-.058.339-.125.674-.2,1.01-.139.65-.255,1.283-.334,1.952a3.261,3.261,0,0,0,.437,1.627Zm-.009-3.822q.016-.126.033-.252-.017.126-.033.252Z" transform="translate(-250.706 -368.292)" fill="#236092"/>
      <path id="Path_3858" data-name="Path 3858" d="M920.862,1917.328a30.879,30.879,0,0,0,7.457,1.133c1.128.007,2.244-.03,3.367-.1,1.167-.074,2.337-.1,3.5-.162,2.282-.111,4.548-.211,6.84-.136,2.341.077,4.68.248,7.018.391,1.886.114,3.782.131,5.666.309a43.075,43.075,0,0,0,5.415.326,2.951,2.951,0,0,0,2.068-.791,2.84,2.84,0,0,0,.856-2.04,3.034,3.034,0,0,0-.856-2.1l-.592-.476a3,3,0,0,0-1.475-.448c-1.16-.177-2.323-.3-3.488-.427-1.133-.123-2.26-.233-3.4-.266-2.375-.067-4.751-.059-7.126-.041-2.343.02-4.689.055-7.026.191-1.142.066-2.278.159-3.418.243s-2.277.118-3.413.179c-1.317.071-2.621.137-3.943.117a25.741,25.741,0,0,1-3.421-.3c-.887-.175-1.766-.381-2.644-.606a2.68,2.68,0,0,0-2.018.2,2.521,2.521,0,0,0-1.2,1.525,2.472,2.472,0,0,0-.088.66,2.715,2.715,0,0,0,1.919,2.624Z" transform="translate(-217.531 -415.195)" fill="#236092"/>
      <path id="Path_3859" data-name="Path 3859" d="M1121.157,1532.3c-.352.055-.7.111-1.058.161-.943.066-1.886.137-2.83.178-1.128.049-2.259.038-3.388.085-2.257.1-4.516.027-6.776.055s-4.492.2-6.74.257c-2.469.067-4.935.14-7.4.193-2.33.048-4.656-.032-6.99-.1-2.43-.076-4.859-.15-7.29-.208-2.353-.057-4.706-.1-7.058-.087-2.435.015-4.861.073-7.3.007-2.377-.065-4.755-.131-7.131-.143-2.471-.011-4.936.072-7.407.05s-4.919-.12-7.378-.159c-2.406-.038-4.81-.017-7.213.031-2.3.046-4.608-.073-6.912-.121-2.4-.052-4.812-.095-7.214-.054s-4.791.153-7.188.191-4.783.12-7.177.131c-2.375.011-4.742.147-7.117.166s-4.724.093-7.092.037c-2.475-.058-4.949-.1-7.422-.076-1.211.012-2.419.047-3.631.056-1.186.007-2.378-.057-3.567-.094-4.8-.155-9.611-.285-14.413-.634-4.71-.344-9.431-.38-14.144-.462-2.9-.051-5.791-.047-8.68.086-1.49.069-2.981.072-4.473.084-.892.008-1.794-.031-2.691-.112q-.018-.338-.039-.675c-.073-1.191-.212-2.369-.353-3.555-.15-1.24-.143-2.5-.214-3.743-.089-1.545-.28-3.076-.487-4.614.039.291.079.581.118.869-.12-.933-.177-1.868-.277-2.8-.114-1.078-.2-2.151-.241-3.233a3.431,3.431,0,0,0-3.252-3.359,3.154,3.154,0,0,0-3.255,3.03q0,.058,0,.117c.091,2.269.332,4.543.594,6.8.239,2.068.175,4.123.266,6.191.045,1.036.173,2.072.236,3.109q.086,1.445.032,2.884c-.01.319-.026.636-.042.953a3.522,3.522,0,0,0,.2,1.318,5.622,5.622,0,0,0,1.1,1.933,4.956,4.956,0,0,0,2.093,1.285,7.568,7.568,0,0,0,1.649.318c.519.067,1.04.105,1.563.139a55.915,55.915,0,0,0,6.915-.05c2.348-.144,4.7-.234,7.056-.211,2.393.025,4.785.1,7.177.185,2.417.086,4.84.146,7.256.348,2.341.2,4.674.419,7.019.556,2.449.145,4.9.245,7.35.341,2.382.094,4.758.205,7.136.159q3.522-.069,7.05,0c1.26.022,2.519.049,3.777.07,1.22.022,2.441-.036,3.658-.06,2.385-.048,4.769-.11,7.152-.165,2.348-.053,4.7-.017,7.046-.076,2.416-.06,4.831-.063,7.245-.15,4.7-.171,9.411.043,14.114.167,2.459.064,4.919-.048,7.376-.04,2.422.006,4.849.077,7.272.142,2.343.064,4.672.006,7.011,0,2.411-.009,4.823.028,7.234.089,1.27.033,2.541.069,3.809.1,1.13.028,2.255,0,3.381-.019,2.494-.034,4.986-.021,7.483.02,4.76.079,9.524.326,14.284.391,1.2.016,2.392-.045,3.586-.061s2.387-.041,3.579-.09c1.171-.047,2.343-.062,3.511-.108,1.143-.047,2.284-.127,3.427-.168,2.994-.109,5.993,0,8.985-.114,1.536-.06,3.078-.053,4.612-.159.831-.058,1.659-.123,2.488-.2Zm-187.59,1.034h0l.005.012Z" transform="translate(-221.081 -197.059)" fill="#236092"/>
    </g>
  </g>
</svg>
